<svg width="52" height="52" viewBox="0 0 52 52" fill="none" xmlns="http://www.w3.org/2000/svg">
<g opacity="0.28" clip-path="url(#clip0_227_4385)">
<path d="M49.3998 15.6H40.7332C39.2973 15.6 38.1332 16.7641 38.1332 18.2V26.8666C38.1355 27.5082 38.3765 28.1261 38.8092 28.5999C38.3765 29.0737 38.1355 29.6916 38.1332 30.3333V38.9999C38.1361 39.2958 38.19 39.589 38.2927 39.8665H36.3999V4.33339C36.3999 2.8975 35.2357 1.7334 33.7999 1.7334C32.364 1.7334 31.1999 2.8975 31.1999 4.33339V18.7079L25.492 13H25.9999C27.4359 13 28.5999 11.8359 28.5999 10.4C28.5999 8.96411 27.4359 7.80001 25.9999 7.80001H2.59999C1.33514 7.79767 0.252991 8.70787 0.0386952 9.95444C-0.175601 11.201 0.54031 12.4204 1.73336 12.8406V30.4928C0.698239 30.8587 0.00457029 31.8354 0 32.9333V42.4666C0 43.9025 1.1641 45.0666 2.59999 45.0666H3.53599C3.72499 46.3845 4.34371 47.603 5.29616 48.5332H2.59999C2.12133 48.5332 1.73336 48.9212 1.73336 49.3998C1.73336 49.8785 2.12143 50.2665 2.59999 50.2665H41.5998C42.0785 50.2665 42.4665 49.8785 42.4665 49.3998C42.4665 48.9212 42.0784 48.5332 41.5998 48.5332H36.3037C37.2561 47.603 37.8748 46.3844 38.0639 45.0666H49.3998C50.4273 45.0712 51.3603 44.4676 51.7773 43.5284C52.1943 42.5893 52.0163 41.4924 51.3238 40.7333C51.7566 40.2596 51.9976 39.6417 51.9998 39V30.3334C51.9976 29.6917 51.7566 29.0738 51.3238 28.6C51.7566 28.1262 51.9976 27.5083 51.9998 26.8667V18.2001C51.9998 16.7641 50.8358 15.6 49.3998 15.6ZM43.3332 17.3333H46.7998V21.6667L46.0276 21.1519C45.446 20.7626 44.687 20.7626 44.1054 21.1519L43.3332 21.6667V17.3333ZM39.8665 18.2C39.8665 17.7213 40.2544 17.3333 40.7331 17.3333H41.5997V21.6667C41.5998 22.3058 41.9516 22.8929 42.5151 23.1946C43.0786 23.4961 43.7623 23.4632 44.2942 23.1089L45.0664 22.5932L45.8385 23.1081C46.3703 23.4624 47.0538 23.4954 47.6172 23.194C48.1807 22.8926 48.5326 22.3057 48.533 21.6668V17.3334H49.3996C49.8783 17.3334 50.2662 17.7215 50.2662 18.2001V26.8667C50.2662 27.3453 49.8783 27.7333 49.3996 27.7333H40.733C40.2543 27.7333 39.8664 27.3452 39.8664 26.8667L39.8665 18.2ZM43.3332 29.4667H46.7998V33.8L46.0276 33.2852C45.446 32.8959 44.687 32.8959 44.1054 33.2852L43.3332 33.8V29.4667ZM39.8665 38.9999V30.3333C39.8665 29.8546 40.2544 29.4667 40.7331 29.4667H41.5997V33.8C41.5998 34.4391 41.9516 35.0263 42.5151 35.3279C43.0786 35.6294 43.7623 35.5965 44.2942 35.2422L45.0664 34.7266L45.8385 35.2414C46.3703 35.5957 47.0538 35.6287 47.6172 35.3273C48.1805 35.0259 48.5326 34.439 48.533 33.8001V29.4668H49.3996C49.8783 29.4668 50.2662 29.8548 50.2662 30.3334V39C50.2662 39.4786 49.8783 39.8666 49.3996 39.8666H40.733C40.2545 39.8666 39.8665 39.4785 39.8665 38.9999ZM32.9332 4.33339C32.9332 3.85473 33.3212 3.46676 33.7999 3.46676C34.2785 3.46676 34.6665 3.85483 34.6665 4.33339V38.7269C34.1185 38.4656 33.5341 38.2888 32.9331 38.2025V4.33339H32.9332ZM31.1999 21.1588V34.6666H27.7333V26C27.7333 25.7702 27.6418 25.5498 27.4794 25.3873L24.1921 22.1001L25.746 20.5462C26.0744 20.2061 26.0698 19.6655 25.7354 19.3313C25.4011 18.9969 24.8606 18.9923 24.5205 19.3207L20.1872 23.6541C19.9619 23.8717 19.8715 24.1939 19.9509 24.4969C20.0302 24.8 20.2668 25.0365 20.5698 25.1158C20.8728 25.1952 21.195 25.1048 21.4126 24.8795L22.9665 23.3256L25.9999 26.3588V34.6666H20.4212C19.1585 34.6689 17.9268 34.2748 16.8999 33.54L14.449 31.7902C13.5016 31.1137 12.4138 30.6593 11.2667 30.4607V25.5667C11.2667 23.8914 9.9086 22.5333 8.23333 22.5333C6.55807 22.5333 5.19998 23.8914 5.19998 25.5667V30.3333H3.46662V13H23.0411L31.1999 21.1588ZM9.53333 30.3333H6.93334V25.5667C6.93334 24.8487 7.51539 24.2667 8.23333 24.2667C8.95128 24.2667 9.53333 24.8487 9.53333 25.5667V30.3333ZM2.59999 9.53337H25.9999C26.4786 9.53337 26.8665 9.92134 26.8665 10.4C26.8665 10.8787 26.4785 11.2666 25.9999 11.2666H2.59999C2.12133 11.2666 1.73336 10.8786 1.73336 10.4C1.73336 9.92134 2.12133 9.53337 2.59999 9.53337ZM1.73336 42.4666V32.9333C1.73336 32.4546 2.12143 32.0666 2.59999 32.0666H9.91206C11.1763 32.0635 12.4096 32.4576 13.4377 33.1933L15.8886 34.9431C17.2093 35.8921 18.795 36.4017 20.4212 36.4H31.1999V38.2026C28.5427 38.589 26.4556 40.6761 26.0693 43.3332H15.5306C15.1022 40.3504 12.5468 38.1357 9.53323 38.1357C6.51968 38.1357 3.96427 40.3504 3.53588 43.3332H2.59999C2.12133 43.3332 1.73336 42.9452 1.73336 42.4666ZM5.19998 44.1999C5.19998 41.8067 7.14012 39.8665 9.53333 39.8665C11.9265 39.8665 13.8667 41.8067 13.8667 44.1999C13.8667 46.5931 11.9265 48.5332 9.53333 48.5332C7.14124 48.5304 5.20282 46.592 5.19998 44.1999ZM13.7704 48.5332C14.7228 47.603 15.3416 46.3844 15.5306 45.0666H26.0692C26.2582 46.3845 26.8769 47.603 27.8293 48.5332H13.7704ZM32.0665 48.5332C29.6733 48.5332 27.7332 46.5931 27.7332 44.1999C27.7332 41.8067 29.6733 39.8665 32.0665 39.8665C34.4597 39.8665 36.3999 41.8067 36.3999 44.1999C36.397 46.592 34.4586 48.5304 32.0665 48.5332ZM49.3998 43.3332H38.0639C37.9776 42.7323 37.8008 42.1479 37.5395 41.5999H49.3998C49.8785 41.5999 50.2664 41.9879 50.2664 42.4665C50.2664 42.9452 49.8785 43.3332 49.3998 43.3332Z" fill="white"/>
<path d="M9.53335 41.6001C8.09746 41.6001 6.93335 42.7642 6.93335 44.2001C6.93335 45.636 8.09746 46.8001 9.53335 46.8001C10.9692 46.8001 12.1333 45.636 12.1333 44.2001C12.1333 42.7642 10.9692 41.6001 9.53335 41.6001ZM9.53335 45.0668C9.05469 45.0668 8.66672 44.6789 8.66672 44.2002C8.66672 43.7215 9.05479 43.3336 9.53335 43.3336C10.012 43.3336 10.4 43.7215 10.4 44.2002C10.4 44.6789 10.0119 45.0668 9.53335 45.0668Z" fill="white"/>
<path d="M32.0666 41.6001C30.6307 41.6001 29.4666 42.7642 29.4666 44.2001C29.4666 45.636 30.6307 46.8001 32.0666 46.8001C33.5024 46.8001 34.6666 45.636 34.6666 44.2001C34.6666 42.7642 33.5025 41.6001 32.0666 41.6001ZM32.0666 45.0668C31.5879 45.0668 31.1999 44.6789 31.1999 44.2002C31.1999 43.7215 31.588 43.3336 32.0666 43.3336C32.5452 43.3336 32.9332 43.7215 32.9332 44.2002C32.9332 44.6789 32.5452 45.0668 32.0666 45.0668Z" fill="white"/>
<path d="M48.5332 50.2665C49.0119 50.2665 49.3998 49.8785 49.3998 49.3998C49.3998 48.9212 49.0119 48.5332 48.5332 48.5332H45.0666C44.5879 48.5332 44.2 48.9212 44.2 49.3998C44.2 49.8785 44.588 50.2665 45.0666 50.2665H48.5332Z" fill="white"/>
</g>
<defs>
<clipPath id="clip0_227_4385">
<rect width="52" height="52" fill="white"/>
</clipPath>
</defs>
</svg>
