<svg width="16" height="16" viewBox="0 0 16 16" fill="none" xmlns="http://www.w3.org/2000/svg">
<g opacity="0.32">
<path d="M2.44377 7.40774C2.16764 7.40851 1.89736 7.48745 1.66421 7.63542C1.43107 7.7834 1.24458 7.99435 1.12633 8.24389C1.00807 8.49343 0.962886 8.77135 0.995993 9.0455C1.0291 9.31964 1.13915 9.57882 1.31341 9.79303L5.02818 14.3436C5.16062 14.5081 5.3304 14.6386 5.52341 14.7242C5.71642 14.8099 5.92708 14.8483 6.1379 14.8362C6.58879 14.812 6.99587 14.5708 7.25541 14.1742L14.9719 1.74675C14.9732 1.74469 14.9745 1.74263 14.9759 1.7406C15.0483 1.62943 15.0248 1.40912 14.8753 1.27072C14.8343 1.23272 14.7859 1.20352 14.7331 1.18492C14.6804 1.16633 14.6243 1.15873 14.5685 1.1626C14.5127 1.16647 14.4583 1.18173 14.4086 1.20743C14.3589 1.23313 14.315 1.26873 14.2796 1.31205C14.2768 1.31545 14.274 1.3188 14.271 1.32211L6.48882 10.1148C6.45921 10.1483 6.42324 10.1755 6.38301 10.195C6.34278 10.2144 6.29909 10.2257 6.25448 10.2281C6.20986 10.2305 6.16521 10.224 6.12312 10.209C6.08103 10.1941 6.04233 10.1709 6.00928 10.1408L3.42651 7.79045C3.15827 7.54455 2.80767 7.40802 2.44377 7.40774Z" fill="#0F313A"/>
</g>
</svg>
