<svg width="52" height="52" viewBox="0 0 52 52" fill="none" xmlns="http://www.w3.org/2000/svg">
<g clip-path="url(#clip0_227_4589)">
<path d="M48.0625 14.2388C47.5577 14.4832 47.3464 15.0905 47.5907 15.5954C49.1687 18.8562 49.9688 22.3567 49.9688 25.9999C49.9688 39.2164 39.2164 49.9687 26 49.9687C20.8194 49.9687 15.7485 48.2665 11.6145 45.1587C12.1544 44.0262 11.9568 42.6271 11.0203 41.6906C9.83228 40.5028 7.89934 40.5028 6.71126 41.6906C5.52329 42.8786 5.52329 44.8116 6.71126 45.9996C7.6303 46.9187 9.0149 47.1392 10.1597 46.6035C14.6864 50.0878 20.2814 52 26 52C40.3365 52 52 40.3364 52 25.9999C52 22.0477 51.1317 18.2495 49.4191 14.7107C49.1749 14.2058 48.5676 13.9946 48.0625 14.2388Z" fill="#FAC12E"/>
<path d="M3.68164 37.27C4.19189 37.037 4.41655 36.4344 4.18346 35.9243C2.75529 32.7979 2.03125 29.4588 2.03125 26C2.03125 12.7836 12.7836 2.03125 26 2.03125C31.0993 2.03125 35.9241 3.59805 40.023 6.57241C39.3106 7.74465 39.4597 9.29723 40.4718 10.3094C41.6599 11.4974 43.5928 11.4974 44.7808 10.3094C45.9688 9.12143 45.9688 7.18849 44.7808 6.00041C43.9402 5.15978 42.7267 4.91491 41.6679 5.26388C37.1581 1.84712 31.6941 0 26 0C11.6635 0 0 11.6635 0 26C0 29.7521 0.785891 33.3751 2.33584 36.7682C2.5677 37.2759 3.16895 37.5042 3.68164 37.27Z" fill="#FAC12E"/>
<path d="M26 6.70312C16.0666 6.70312 6.70312 14.5931 6.70312 26C6.70312 36.5656 15.2851 45.2969 26 45.2969C36.7128 45.2969 45.2969 36.5709 45.2969 26C45.2969 15.4344 36.7149 6.70312 26 6.70312ZM20.564 9.61188C18.4652 12.1068 17.195 15.6675 16.5377 18.8906H10.2667C12.244 14.5325 15.9805 11.1362 20.564 9.61188ZM8.73438 26C8.73438 24.2334 9.00159 22.5281 9.49691 20.9219L16.1898 20.9209C15.9617 22.5556 15.8438 24.2612 15.8438 26C15.8438 27.7388 15.9617 29.4434 16.1898 31.0781H9.49691C9.00159 29.4719 8.73438 27.7666 8.73438 26ZM10.2669 33.1094H16.5378C17.1949 36.3318 18.465 39.8929 20.5641 42.3881C15.9805 40.8638 12.244 37.4675 10.2669 33.1094ZM24.9844 43.1246C22.1894 42.3454 19.7871 38.4072 18.6235 33.1094H24.9844V43.1246ZM24.9844 31.0781H18.2489C18.0063 29.4652 17.875 27.7582 17.875 26C17.875 24.2418 18.0064 22.5348 18.2489 20.9219H24.9844V31.0781ZM24.9844 18.8906H18.6235C19.7871 13.5927 22.1894 9.65463 24.9844 8.87545V18.8906ZM27.0156 8.87545C29.8106 9.65463 32.2129 13.5928 33.3765 18.8906H27.0156V8.87545ZM27.0156 20.9219H33.7511C33.9937 22.5348 34.125 24.2418 34.125 26C34.125 27.7582 33.9936 29.4652 33.7511 31.0781H27.0156V20.9219ZM27.0156 43.1246V33.1084L33.3765 33.1094C32.2129 38.4073 29.8106 42.3454 27.0156 43.1246ZM31.436 42.3881C33.5357 39.8922 34.8055 36.3304 35.4623 33.1084H41.7332C39.756 37.4675 36.0195 40.8638 31.436 42.3881ZM43.2656 26C43.2656 27.7666 42.9984 29.4719 42.5031 31.0781H35.8102C36.0383 29.4434 36.1562 27.7388 36.1562 26C36.1562 24.2612 36.0383 22.5566 35.8102 20.9219H42.5031C42.9984 22.5281 43.2656 24.2334 43.2656 26ZM35.4622 18.8906C34.8051 15.6683 33.535 12.1071 31.4359 9.61188C36.0194 11.1362 39.756 14.5325 41.733 18.8906H35.4622Z" fill="white"/>
</g>
<defs>
<clipPath id="clip0_227_4589">
<rect width="52" height="52" fill="white"/>
</clipPath>
</defs>
</svg>
