<svg width="52" height="52" viewBox="0 0 52 52" fill="none" xmlns="http://www.w3.org/2000/svg">
<g clip-path="url(#clip0_227_4565)">
<path fill-rule="evenodd" clip-rule="evenodd" d="M45.1881 46.21H36.9562V44.5854H45.1881C47.739 44.5854 49.8152 42.509 49.8152 39.9579C49.8152 37.4057 47.7391 35.3298 45.1881 35.3298H42.1777C39.4553 35.3298 37.2424 33.1168 37.2424 30.3956C37.2424 27.6743 39.4553 25.4607 42.1777 25.4607H44.6803C46.5049 25.4607 47.99 23.9761 47.99 22.1511C47.99 20.3262 46.5049 18.8414 44.6803 18.8414H28.2867V17.2163H44.6803C47.4004 17.2163 49.6152 19.4298 49.6152 22.1511C49.6152 24.8719 47.4004 27.0859 44.6803 27.0859H42.1777C40.3519 27.0859 38.8674 28.5706 38.8674 30.3957C38.8674 32.2201 40.3519 33.7048 42.1777 33.7048H45.1881C48.636 33.7048 51.4398 36.5101 51.4398 39.958C51.4397 43.4052 48.636 46.21 45.1881 46.21Z" fill="#FAC12E"/>
<path fill-rule="evenodd" clip-rule="evenodd" d="M22.1715 1.67576C19.0541 1.67576 16.5178 4.21198 16.5178 7.32924C16.5178 11.7214 20.7001 15.824 22.1715 17.1303C23.6426 15.8239 27.8245 11.7214 27.8245 7.32924C27.8245 4.21198 25.2888 1.67576 22.1715 1.67576ZM22.1715 20.5406C20.2056 20.5406 18.3467 20.3562 16.9403 20.0208C16.2697 19.8608 14.2274 19.3741 14.2274 18.0283C14.2274 16.6688 16.3178 16.0323 18.5478 15.7402C16.7688 13.6177 14.8923 10.6034 14.8923 7.32924C14.8923 3.31579 18.1576 0.0512695 22.1715 0.0512695C26.1845 0.0512695 29.4497 3.3159 29.4497 7.32924C29.4497 10.6035 27.5733 13.6179 25.7945 15.7402C28.0243 16.0323 30.1144 16.6688 30.1144 18.0283C30.1144 19.3741 28.0725 19.8608 27.4024 20.0208C25.9954 20.3561 24.1377 20.5406 22.1715 20.5406ZM19.9085 17.2317C17.8132 17.4031 16.5927 17.7672 16.0737 18.0301C16.7914 18.3913 18.7554 18.8746 21.7845 18.9129C21.7441 18.8911 21.705 18.8654 21.6677 18.8361C21.5796 18.7662 20.854 18.1867 19.9085 17.2317ZM22.5575 18.9129C25.5861 18.8747 27.5507 18.3913 28.2683 18.0301C27.7492 17.7673 26.5287 17.4032 24.4335 17.2317C23.4881 18.1865 22.7625 18.7663 22.6741 18.8361C22.6373 18.8653 22.598 18.891 22.5575 18.9129ZM22.1715 4.25423C23.8675 4.25423 25.2482 5.63436 25.2482 7.33147C25.2482 9.02807 23.8675 10.4087 22.1715 10.4087C20.4745 10.4087 19.0945 9.02807 19.0945 7.33147C19.0945 5.63436 20.4745 4.25423 22.1715 4.25423ZM22.1715 12.0338C19.5789 12.0338 17.4693 9.92426 17.4693 7.33147C17.4693 4.73868 19.5788 2.62913 22.1715 2.62913C24.7634 2.62913 26.8728 4.73868 26.8728 7.33147C26.8728 9.92426 24.7633 12.0338 22.1715 12.0338Z" fill="#FAC12E"/>
<path fill-rule="evenodd" clip-rule="evenodd" d="M10.1922 47.1353C9.61891 47.1353 9.15436 47.5987 9.15436 48.1721C9.15436 48.7461 9.61891 49.21 10.1922 49.21C10.7663 49.21 11.2303 48.7462 11.2303 48.1721C11.2303 47.5987 10.7664 47.1353 10.1922 47.1353ZM36.875 38.4367H28.4814C28.0329 38.4367 27.6689 38.0728 27.6689 37.6239V30.5086H26.225V47.3598H27.4019C27.7748 45.6666 29.2868 44.3952 31.0906 44.3952C32.894 44.3952 34.4069 45.6667 34.7798 47.3598H36.8749V38.4367H36.875ZM29.2944 30.5086H30.2489C30.6674 30.5086 31.0075 30.6588 31.2895 30.9679L36.5054 36.6722C36.5473 36.7179 36.5852 36.7642 36.6195 36.8116H29.2943V30.5086H29.2944ZM27.402 48.985H25.4122H13.8811C13.5085 50.6785 11.9966 51.9491 10.1923 51.9491C8.38817 51.9491 6.87652 50.6785 6.50378 48.985H3.59584C1.92209 48.985 0.560242 47.6231 0.560242 45.9489V28.331C0.560242 26.6574 1.92199 25.2949 3.59584 25.2949H23.1895C24.8632 25.2949 26.2251 26.6573 26.2251 28.331V28.8834H30.2489C31.1245 28.8834 31.8985 29.2256 32.4893 29.8716L37.7045 35.5754C38.2317 36.1524 38.4997 36.8419 38.4997 37.6238V47.4306C38.4997 48.288 37.8035 48.985 36.9459 48.985H34.78C34.4071 50.6785 32.8942 51.9491 31.0908 51.9491C29.287 51.9491 27.7749 50.6785 27.402 48.985ZM2.18494 43.6679H24.5999V47.3598H13.8811C13.5085 45.6666 11.9966 44.3952 10.1923 44.3952C8.38807 44.3952 6.87631 45.6667 6.50378 47.3598H3.59584C2.81787 47.3598 2.18484 46.7269 2.18484 45.9489V43.6679H2.18494ZM24.5999 42.0429V28.331C24.5999 27.5531 23.9671 26.9201 23.1895 26.9201H3.59584C2.81787 26.9201 2.18484 27.5531 2.18484 28.331V42.0429H24.5999ZM9.69477 33.8531C9.833 33.8531 9.97285 33.8183 10.101 33.744L14.7211 31.0763C15.1089 30.8529 15.242 30.3548 15.0177 29.967C14.7943 29.578 14.2966 29.4449 13.9082 29.6694L9.28812 32.3365C8.89974 32.5609 8.76659 33.058 8.99095 33.4463C9.14136 33.7074 9.41426 33.8531 9.69477 33.8531ZM8.66879 37.6512C8.8061 37.6512 8.94595 37.6158 9.07382 37.5427L18.5237 32.0869C18.9115 31.8625 19.0452 31.3654 18.8213 30.977C18.5969 30.5887 18.0987 30.4555 17.7108 30.6789L8.26152 36.1353C7.87254 36.3597 7.73939 36.8562 7.96395 37.2452C8.11426 37.505 8.38797 37.6512 8.66879 37.6512ZM12.4715 38.6617C12.6099 38.6617 12.7487 38.6262 12.8765 38.552L17.4968 35.8855C17.8856 35.661 18.0189 35.164 17.7944 34.775C17.5698 34.3871 17.0735 34.254 16.6843 34.4773L12.0644 37.1455C11.6765 37.37 11.5421 37.8664 11.7666 38.2554C11.9181 38.516 12.19 38.6617 12.4715 38.6617ZM10.1922 46.0204C11.3783 46.0204 12.3441 46.9862 12.3441 48.1722C12.3441 49.3597 11.3783 50.3245 10.1922 50.3245C9.00598 50.3245 8.04002 49.3597 8.04002 48.1722C8.04002 46.9861 9.00608 46.0204 10.1922 46.0204ZM31.0907 46.0204C32.2774 46.0204 33.2432 46.9862 33.2432 48.1722C33.2432 49.3597 32.2773 50.3245 31.0907 50.3245C29.9043 50.3245 28.9388 49.3597 28.9388 48.1722C28.9389 46.9861 29.9043 46.0204 31.0907 46.0204ZM31.0907 47.1353C31.6648 47.1353 32.1286 47.5987 32.1286 48.1721C32.1286 48.7461 31.6649 49.21 31.0907 49.21C30.5173 49.21 30.0529 48.7462 30.0529 48.1721C30.0529 47.5987 30.5173 47.1353 31.0907 47.1353Z" fill="white"/>
</g>
<defs>
<clipPath id="clip0_227_4565">
<rect width="52" height="52" fill="white"/>
</clipPath>
</defs>
</svg>
