<svg width="52" height="52" viewBox="0 0 52 52" fill="none" xmlns="http://www.w3.org/2000/svg">
<g clip-path="url(#clip0_227_4598)">
<path d="M2.72525 9.75635H8.2337" stroke="#FAC12E" stroke-width="2" stroke-miterlimit="10" stroke-linecap="round" stroke-linejoin="round"/>
<path d="M7.4545 2.10596L9.75225 4.40371" stroke="#FAC12E" stroke-width="2" stroke-miterlimit="10" stroke-linecap="round" stroke-linejoin="round"/>
<path d="M7.4545 17.4066L9.75225 15.1089" stroke="#FAC12E" stroke-width="2" stroke-miterlimit="10" stroke-linecap="round" stroke-linejoin="round"/>
<path d="M49.2748 9.75635H43.7664" stroke="#FAC12E" stroke-width="2" stroke-miterlimit="10" stroke-linecap="round" stroke-linejoin="round"/>
<path d="M44.5456 2.10596L42.2478 4.40371" stroke="#FAC12E" stroke-width="2" stroke-miterlimit="10" stroke-linecap="round" stroke-linejoin="round"/>
<path d="M27.8548 2.27841L29.5051 5.62215L33.1951 6.1583C34.8916 6.4048 35.569 8.48967 34.3415 9.68628L31.6713 12.289L32.3016 15.9642C32.5913 17.6539 30.8179 18.9424 29.3005 18.1446L26 16.4095L22.6996 18.1447C21.1821 18.9425 19.4086 17.654 19.6985 15.9643L20.3288 12.2891L17.6586 9.68638C16.431 8.48977 17.1084 6.4049 18.8049 6.15841L22.495 5.62226L24.1452 2.27851C24.904 0.741163 27.0961 0.741163 27.8548 2.27841Z" stroke="#FAC12E" stroke-width="2" stroke-miterlimit="10" stroke-linecap="round" stroke-linejoin="round"/>
<path d="M44.5456 17.4066L42.2478 15.1089" stroke="#FAC12E" stroke-width="2" stroke-miterlimit="10" stroke-linecap="round" stroke-linejoin="round"/>
<path d="M44.9258 36.1836L40.899 32.8032" stroke="#FAC12E" stroke-width="2" stroke-miterlimit="10" stroke-linejoin="round"/>
<path d="M7.07425 36.1836L11.101 32.8032" stroke="#FAC12E" stroke-width="2" stroke-miterlimit="10" stroke-linejoin="round"/>
<path d="M15.6441 35.1267C14.0549 34.9258 12.5615 34.2179 11.386 33.084C9.56162 31.3245 8.05402 29.2645 6.92709 26.9942C6.62555 26.3867 6.31304 25.7499 6.01343 25.1275C5.38394 23.82 3.79754 23.2927 2.50932 23.9606C1.25045 24.6132 0.752694 26.1623 1.4031 27.4222C3.80597 32.0777 7.31861 36.8155 10.715 40.5016L12.0032 41.8997L11.9321 50.8747H26V39.5407C26 37.1322 24.0472 35.1803 21.6388 35.1817" stroke="white" stroke-width="2" stroke-miterlimit="10" stroke-linejoin="round"/>
<path d="M18.6257 25.1064C16.01 25.1064 13.8896 27.2269 13.8896 29.8425V31.448C13.8896 34.0636 16.01 36.1841 18.6257 36.1841C21.2413 36.1841 23.3617 34.0636 23.3617 31.448V29.8425C23.3617 27.2269 21.2413 25.1064 18.6257 25.1064Z" stroke="white" stroke-width="2" stroke-miterlimit="10" stroke-linejoin="round"/>
<path d="M30.3612 35.1818C27.9528 35.1803 26 37.1323 26 39.5407V50.8746H40.068L39.9969 41.8997L41.2852 40.5015C44.6815 36.8154 48.194 32.0776 50.597 27.4222C51.2474 26.1622 50.7497 24.6132 49.4908 23.9606C48.2026 23.2927 46.6161 23.8201 45.9867 25.1275C45.6871 25.7499 45.3745 26.3867 45.073 26.9941C43.9461 29.2645 42.4385 31.3245 40.6141 33.084C39.4386 34.2178 37.9451 34.9258 36.356 35.1267" stroke="white" stroke-width="2" stroke-miterlimit="10" stroke-linejoin="round"/>
<path d="M33.3743 25.106C35.99 25.106 38.1104 27.2264 38.1104 29.842V31.4475C38.1104 34.0632 35.99 36.1836 33.3743 36.1836C30.7587 36.1836 28.6383 34.0632 28.6383 31.4475V29.842C28.6383 27.2264 30.7587 25.106 33.3743 25.106Z" stroke="white" stroke-width="2" stroke-miterlimit="10" stroke-linejoin="round"/>
</g>
<defs>
<clipPath id="clip0_227_4598">
<rect width="52" height="52" fill="white"/>
</clipPath>
</defs>
</svg>
