<svg width="52" height="52" viewBox="0 0 52 52" fill="none" xmlns="http://www.w3.org/2000/svg">
<g clip-path="url(#clip0_227_4574)">
<path d="M40.0466 25.2891H37.6174C37.0004 25.2891 36.5002 25.7893 36.5002 26.4062C36.5002 27.0232 37.0004 27.5234 37.6174 27.5234H40.0466C40.6636 27.5234 41.1638 27.0232 41.1638 26.4062C41.1638 25.7893 40.6636 25.2891 40.0466 25.2891Z" fill="white"/>
<path d="M11.9863 25.2891C11.3693 25.2891 10.8691 25.7893 10.8691 26.4062C10.8691 27.0232 11.3693 27.5234 11.9863 27.5234H14.386C15.003 27.5234 15.5032 27.0232 15.5032 26.4062C15.5032 25.7893 15.003 25.2891 14.386 25.2891H11.9863Z" fill="white"/>
<path d="M40.2999 28.601C39.6992 28.4615 39.0984 28.8349 38.9584 29.4359C38.4836 31.4759 37.5163 33.3802 36.1685 34.9804L35.7827 34.5945C35.3464 34.1581 34.6389 34.1582 34.2028 34.5945C33.7665 35.0307 33.7665 35.7381 34.2028 36.1744L34.5913 36.5629C34.5043 36.6365 34.4184 36.7112 34.3295 36.7826C32.2376 38.4645 29.7634 39.4503 27.1172 39.6665V38.0246C27.1172 37.4076 26.617 36.9074 26 36.9074C25.383 36.9074 24.8828 37.4076 24.8828 38.0246V39.6665C22.2424 39.4506 19.7726 38.4683 17.6833 36.7928C17.5901 36.7181 17.4997 36.6401 17.4086 36.5629L17.7972 36.1743C18.2335 35.738 18.2334 35.0306 17.7972 34.5944C17.3609 34.1581 16.6536 34.1582 16.2173 34.5944L15.8313 34.9804C14.491 33.389 13.5267 31.4964 13.0492 29.469C12.9078 28.8684 12.3066 28.4962 11.7057 28.6376C11.1051 28.779 10.7329 29.3805 10.8743 29.9811C11.6633 33.3322 13.5851 36.3702 16.2854 38.5359C19.0278 40.7352 22.4779 41.9464 26 41.9464C29.5291 41.9464 32.9844 40.7309 35.7296 38.5238C38.4331 36.3501 40.3527 33.3025 41.1348 29.9422C41.2746 29.3415 40.9008 28.741 40.2999 28.601Z" fill="white"/>
<path d="M11.6887 24.2873C11.772 24.3063 11.8552 24.3153 11.9372 24.3153C12.4472 24.3153 12.9079 23.9637 13.0256 23.4453C13.4965 21.372 14.4752 19.4372 15.8456 17.8157L16.2172 18.1873C16.4353 18.4055 16.7212 18.5146 17.0071 18.5146C17.293 18.5146 17.5789 18.4055 17.7971 18.1873C18.2334 17.7511 18.2334 17.0437 17.7971 16.6074L17.4255 16.2357C17.4983 16.1743 17.5697 16.1114 17.6439 16.0514C19.7413 14.3563 22.2248 13.3631 24.8828 13.146V14.7879C24.8828 15.4049 25.383 15.9051 26 15.9051C26.617 15.9051 27.1172 15.4049 27.1172 14.7879V13.146C29.7633 13.3622 32.2376 14.3481 34.3294 16.03C34.4138 16.0978 34.4953 16.1687 34.5779 16.2385L34.2095 16.6007C33.7695 17.0333 33.7636 17.7407 34.1963 18.1806C34.4149 18.403 34.7039 18.5145 34.9929 18.5145C35.2757 18.5145 35.5586 18.4077 35.7762 18.1938L36.1574 17.819C37.5109 19.4217 38.4823 21.3308 38.9586 23.3764C39.0985 23.9774 39.6993 24.3512 40.2999 24.2112C40.9008 24.0714 41.2746 23.4708 41.1347 22.8699C40.3526 19.5097 38.433 16.4622 35.7296 14.2886C32.9843 12.0817 29.529 10.8662 26 10.8662C22.4566 10.8662 18.9902 12.0905 16.2394 14.3138C13.5294 16.5039 11.6143 19.5711 10.8468 22.9504C10.7102 23.5521 11.0871 24.1507 11.6887 24.2873Z" fill="white"/>
<path d="M31.1019 20.623C30.4614 20.623 29.8656 20.9681 29.5468 21.5235L26.3441 27.1028C26.0843 27.5556 26.0854 28.1174 26.3469 28.5692C26.6086 29.0209 27.0953 29.3015 27.6173 29.3015H30.6607V31.0027C30.6607 31.6197 31.1609 32.1199 31.7779 32.1199C32.3949 32.1199 32.8951 31.6197 32.8951 31.0027V29.3015H33.0083C33.6253 29.3015 34.1255 28.8013 34.1255 28.1843C34.1255 27.5673 33.6253 27.0671 33.0083 27.0671H32.8951V22.4162C32.8951 21.4274 32.0906 20.623 31.1019 20.623ZM30.6607 27.0671H28.941L30.6607 24.0711V27.0671Z" fill="white"/>
<path d="M25.1148 31.0721C25.1148 30.4551 24.6146 29.9549 23.9976 29.9549H21.5087L23.5106 27.1157C23.5167 27.1072 23.5226 27.0984 23.5284 27.0897C24.2938 25.9365 24.8647 24.9457 24.682 23.5789C24.462 21.9333 22.9994 20.6924 21.2797 20.6924C19.6354 20.6924 18.2121 21.8623 17.8955 23.474C17.7767 24.0794 18.1711 24.6666 18.7765 24.7856C19.3819 24.9044 19.9691 24.51 20.0881 23.9046C20.1993 23.338 20.7005 22.9269 21.2797 22.9269C21.8944 22.9269 22.3939 23.3256 22.4674 23.875C22.54 24.4188 22.323 24.8645 21.6754 25.8413L18.441 30.4285C18.2006 30.7695 18.1702 31.2161 18.3623 31.5865C18.5544 31.9569 18.9368 32.1895 19.3542 32.1895H23.9977C24.6146 32.1893 25.1148 31.6892 25.1148 31.0721Z" fill="white"/>
<path d="M47.3417 21.0116C46.9183 19.8379 45.8039 18.9926 44.492 18.9677C44.5063 16.0191 43.7183 13.1606 42.2115 10.6556C42.6953 10.046 42.9863 9.29561 43.0307 8.50718C43.0905 7.44534 42.6981 6.40209 41.954 5.64525L41.8554 5.54562C38.2863 1.9694 33.5381 0 28.4855 0H23.6653C18.6264 0 13.8874 1.96016 10.3211 5.51952C10.2564 5.58411 10.1921 5.64921 10.1289 5.71421C9.38356 6.47989 8.99194 7.52964 9.0546 8.59422C9.10112 9.38498 9.39636 10.1374 9.88569 10.7463C8.41516 13.2278 7.64603 16.0574 7.65913 18.9661H7.56722C6.22964 18.9661 5.08808 19.8201 4.65837 21.0114C1.99316 21.5747 0 23.9634 0 26.7521V31.6373C0 34.6199 2.20492 37.0823 5.10707 37.4551C5.67227 38.1971 6.56459 38.6772 7.56712 38.6772H9.9058C11.6104 38.6772 12.9973 37.2904 12.9973 35.5858V22.0578C12.9977 20.3488 11.6023 18.9591 9.89331 18.9663C9.88091 16.5531 10.4919 14.2011 11.6681 12.1223C12.1513 12.3332 12.6649 12.4384 13.1768 12.4384C14.1585 12.4384 15.133 12.0536 15.87 11.2974C17.9414 9.1716 20.7097 8.00089 23.6651 8.00089H28.4853C31.3987 8.00089 34.1358 9.13626 36.1933 11.1987L36.2087 11.214C37.3486 12.3608 39.029 12.6503 40.4339 12.0372C41.6423 14.1378 42.2709 16.5166 42.2574 18.9663H42.0939C40.3893 18.9663 39.0024 20.3531 39.0024 22.0578V35.5857C39.0024 37.2562 40.3344 38.6205 41.992 38.6746C41.49 43.3052 37.5573 46.9219 32.7953 46.9219H32.1011C31.6328 45.226 30.0771 43.9766 28.2344 43.9766H23.7656C21.5536 43.9766 19.7539 45.7762 19.7539 47.9883C19.7539 50.2003 21.5536 52 23.7656 52H28.2344C30.0403 52 31.5708 50.8003 32.0722 49.1562H32.7953C38.7895 49.1562 43.725 44.5407 44.2367 38.6771H44.4329C45.4357 38.6771 46.3281 38.1968 46.8933 37.4545C49.7929 37.0807 52 34.6133 52 31.6372V26.752C52 23.9653 50.0062 21.5751 47.3417 21.0116ZM2.23438 31.6373V26.7521C2.23438 25.2578 3.15819 23.9491 4.47566 23.3977V34.9962C3.15341 34.4513 2.23438 33.1527 2.23438 31.6373ZM10.763 22.0578V35.5857C10.763 36.0582 10.3785 36.4428 9.9059 36.4428H7.56722C7.09465 36.4428 6.71013 36.0582 6.71013 35.5857V22.0578C6.71013 21.5852 7.09465 21.2007 7.56722 21.2007H9.9059C10.3785 21.2006 10.763 21.5851 10.763 22.0578ZM37.7944 9.6397L37.7743 9.61959C35.2955 7.13487 31.9967 5.76652 28.4855 5.76652H23.6653C20.1022 5.76652 16.7654 7.17702 14.2698 9.73802C13.7214 10.3008 12.8068 10.3483 12.1877 9.84618L11.8576 9.57856C11.5144 9.30028 11.3111 8.90409 11.2851 8.4631C11.2589 8.01714 11.4168 7.59444 11.7304 7.27248C11.7863 7.2149 11.8428 7.15772 11.8997 7.10095C15.0438 3.96266 19.2223 2.23438 23.6652 2.23438H28.4854C32.9404 2.23438 37.127 3.97089 40.2736 7.12339L40.3605 7.21124C40.6688 7.52477 40.8248 7.94036 40.7999 8.38134C40.7748 8.8268 40.5702 9.22695 40.2238 9.50787L39.8995 9.77082C39.2764 10.2764 38.3709 10.2195 37.7944 9.6397ZM28.2344 49.7656H23.7656C22.7856 49.7656 21.9883 48.9683 21.9883 47.9883C21.9883 47.0083 22.7856 46.2109 23.7656 46.2109H28.2344C29.2144 46.2109 30.0117 47.0083 30.0117 47.9883C30.0117 48.9683 29.2144 49.7656 28.2344 49.7656ZM44.4328 36.4428H42.0941C41.6215 36.4428 41.237 36.0582 41.237 35.5857V22.0578C41.237 21.5852 41.6215 21.2007 42.0941 21.2007H44.4328C44.9054 21.2007 45.2899 21.5852 45.2899 22.0578V35.5857C45.29 36.0582 44.9055 36.4428 44.4328 36.4428ZM49.7656 31.6373C49.7656 33.1495 48.8459 34.4498 47.5243 34.9958V23.3979C48.8415 23.9498 49.7656 25.2588 49.7656 26.7521V31.6373Z" fill="#FAC12E"/>
</g>
<defs>
<clipPath id="clip0_227_4574">
<rect width="52" height="52" fill="white"/>
</clipPath>
</defs>
</svg>
