<svg width="87" height="68" viewBox="0 0 87 68" fill="none" xmlns="http://www.w3.org/2000/svg">
<mask id="mask0_2005_4272" style="mask-type:luminance" maskUnits="userSpaceOnUse" x="8" y="0" width="79" height="68">
<path d="M86.8212 0H8.09326V68H86.8212V0Z" fill="white"/>
</mask>
<g mask="url(#mask0_2005_4272)">
<path d="M12.0666 31.2545C10.7844 29.9902 9.76568 28.7615 8.99275 27.5664C9.93993 22.5982 11.9594 18.0142 14.8054 14.0647C15.5091 14.9783 16.3669 15.9076 17.4213 16.8727C17.6313 17.0648 17.8592 17.2591 18.087 17.4513C15.3505 21.8431 13.6482 26.952 13.2953 32.4296C12.8574 32.0431 12.4352 31.6566 12.0488 31.2702L12.0666 31.2545ZM13.2439 34.449C13.2439 34.2725 13.2439 34.0983 13.2439 33.9218C12.8061 33.6403 12.3481 33.3432 11.9259 33.0618C10.6972 32.2017 9.57357 31.3595 8.5549 30.5151C8.4499 31.6209 8.37842 32.7446 8.37842 33.8861C8.37842 38.7135 9.39709 43.3154 11.2222 47.4749C11.2579 47.4928 11.2915 47.5263 11.3272 47.5464L11.3629 47.2292L17.8078 50.9687C14.9126 46.1413 13.2439 40.4873 13.2439 34.449ZM19.3179 15.6262C25.1664 7.51485 34.6829 2.24731 45.4437 2.24731C56.2067 2.24731 60.2635 4.9682 65.8104 9.49856C59.7185 3.61669 51.4328 0 42.2849 0C33.137 0 23.9198 4.0389 17.7564 10.5172C17.5464 11.833 17.9329 13.3074 18.8466 14.8711C18.9873 15.1168 19.1459 15.3626 19.3202 15.6083V15.6262H19.3179ZM19.0722 52.9189C18.4065 52.604 17.7386 52.3046 17.0885 51.9874C15.3326 51.1452 13.6996 50.2673 12.1537 49.3894C20.4237 65.4556 39.7204 72.126 56.0325 64.8748C50.5906 66.7714 31.4169 70.5288 19.0543 52.9167H19.0722V52.9189ZM86.8115 42.0331C86.8115 42.0331 86.7757 45.8263 86.7757 45.9492C86.7757 47.1622 86.0207 47.0393 86.0207 47.0393L85.8643 57.943C85.7057 59.1202 83.7912 59.2766 83.7912 59.2766L80.1924 59.5045C79.1223 61.3318 77.8043 61.4189 77.8043 61.4189H74.7483C73.1153 61.4189 71.8866 59.4531 71.8866 59.4531L56.5061 59.5045C55.8404 62.2432 53.7673 62.2611 53.7673 62.2611H53.7159L50.7493 62.279L27.6952 54.4134L48.0082 58.2245C47.7982 57.6079 47.6575 57.0114 47.6039 56.5915C47.4475 54.8535 47.3582 51.764 48.7097 49.7803C49.0783 49.2352 50.2377 48.2881 51.4485 48.2188C51.4485 48.2188 49.429 47.4816 48.1311 49.4117C48.1311 49.4117 47.271 50.2718 47.0074 53.9063C47.0074 53.9063 46.9896 55.4857 47.061 56.5937C46.5874 56.5244 45.4973 56.2609 45.4973 56.2609C45.0594 48.7304 47.8161 47.4637 47.8161 47.4637V45.1986C47.5704 45.1293 47.6061 44.9015 47.6061 44.9015V43.3913C47.4676 43.3913 47.3425 43.3556 47.2197 43.3042C47.1683 44.725 47.1504 45.9201 47.1504 46.7623C44.3602 48.3082 44.6573 55.2779 44.6573 55.2779L20.2495 48.5829L42.1263 49.443L42.0906 45.7928L20.0909 42.2967L42.0392 40.103L42.0034 36.7678L19.5123 36.3635L41.9521 31.6924L41.9163 28.4443L20.321 30.7273L41.8828 24.2133L41.8471 20.3687L19.3894 24.9147L44.0922 14.574C44.8651 14.3819 45.6537 14.2746 46.4445 14.2925L67.0591 14.5382C68.3749 14.574 69.34 15.0118 69.4986 16.312L49.6055 16.5577C49.1833 16.5577 48.8325 16.8034 48.6739 17.172C49.0604 16.9799 49.4111 17.0313 49.4111 17.0313L75.3425 17.2949C82.5603 18.805 83.3846 23.351 83.3846 23.351C84.8054 28.3728 85.6498 35.0432 85.6498 35.0432C86.0877 35.3426 86.2642 36.0083 86.2642 36.0083L86.2106 41.048C86.5792 41.5216 86.8092 41.9951 86.8092 41.9951V42.0331H86.8115ZM60.8957 24.0011C61.2286 27.3363 61.5793 35.079 61.5793 35.079C67.287 35.5012 83.9498 35.079 83.9498 35.079C83.3355 28.2142 82.3347 24.0882 82.3347 24.0882L60.9136 24.0167L60.8957 24.0011ZM83.7912 40.103L83.054 40.4716L67.9192 40.5409L65.5311 39.9265L67.7248 41.4724L83.0004 41.3138L83.7912 40.1209V40.103ZM82.6318 43.474L68.7614 43.7197L66.5498 43.0875L68.4643 44.5619L82.5626 44.2983L83.3534 43.1054L82.6162 43.474H82.6318ZM63.5474 43.1568L63.0559 42.8061C62.8973 42.7011 62.7052 42.8954 62.7231 43.0875L62.7946 45.9827C62.7946 46.1949 62.8996 46.3691 63.076 46.4741L63.639 46.8248C63.639 46.8248 63.5519 43.2417 63.5519 43.1724V43.1568H63.5474ZM51.0106 20.3844L57.7883 20.6145L57.7526 21.7917L52.6257 22.2296L57.2433 22.4753C58.0341 22.5982 58.3669 21.9838 58.3669 21.9838L58.4027 20.4045C58.2977 19.9309 57.7526 19.9823 57.7526 19.9823L51.0106 20.3687V20.3844ZM51.6607 52.3739C51.75 52.3739 51.8193 52.3739 51.8885 52.4096C51.5378 51.793 51.0977 51.4267 50.6085 51.4446C49.6077 51.4803 48.8526 53.2004 48.9398 55.2891C49.0113 57.3622 49.887 59.0287 50.9056 58.9951C51.2564 58.9951 51.5557 58.7852 51.8193 58.4166C51.0464 58.363 50.3807 57.0829 50.327 55.4477C50.2556 53.779 50.8699 52.4096 51.6607 52.3739ZM49.0448 44.9819V46.1949C49.0448 46.1949 53.6087 45.4041 55.2082 49.3715C55.2774 49.548 55.1009 44.544 49.0448 44.9819ZM58.1569 38.6443L47.481 36.7834L56.5575 39.1536L56.5217 41.736L48.3567 42.1917L58.1011 42.7882L58.1368 38.6085L58.1569 38.6443ZM58.9813 34.7126L58.8763 24.1083L49.5697 24.1954L49.5184 30.1488C49.5184 30.1488 49.4312 32.0811 50.8699 32.3089L58.9813 34.7126ZM64.8118 50.4616L59.8614 50.408C59.6492 50.408 59.475 50.5845 59.475 50.7945V52.9189C59.4571 53.1468 59.6313 53.3233 59.8614 53.3233L67.2714 53.3948C67.2714 53.3948 67.3942 50.5845 64.8118 50.446V50.4616ZM83.159 45.967L82.4218 46.3356L69.4115 46.6171L67.1976 45.9849L69.235 47.4079L82.3325 47.0036L83.159 45.9492V45.967ZM85.4957 50.0037L84.8992 50.1266C84.8992 50.1266 83.2484 50.303 83.2305 52.9346H85.0757C85.2678 52.9346 85.4086 52.7782 85.4265 52.5838L85.4957 50.0037ZM85.9157 42.8061C85.9157 42.6296 85.7392 42.5246 85.5828 42.6139L85.1271 42.8775C84.9864 42.9669 84.8992 43.1076 84.8992 43.264L84.8635 46.5478C85.8107 46.5121 85.8643 46.0229 85.8643 46.0229L85.9 42.7926L85.9157 42.8061Z" fill="#0F313A"/>
</g>
<path d="M16.9293 50.4099C18.5802 51.4286 20.3875 52.4294 22.3019 53.3944C20.6153 52.6751 18.9846 51.9357 17.4208 51.1806C14.9277 49.9699 12.6089 48.7055 10.5716 47.4411C3.21528 42.875 -0.928645 38.1525 0.177148 34.6766C0.860729 32.5164 3.5124 31.147 7.51559 30.5505C7.42623 31.3927 7.41059 32.2371 7.41059 33.1128V33.2714C6.37405 33.9907 5.6726 34.8865 5.32187 35.9052C4.49756 38.4675 6.09481 41.6285 9.48367 44.843C11.416 46.686 13.927 48.5826 16.9092 50.3898L16.9293 50.4099ZM7.94003 28.6919C9.23794 29.8848 10.7838 31.0621 12.5039 32.2751C12.9954 32.608 13.5405 32.9587 14.0655 33.2938C15.0484 33.8902 16.9092 34.9268 19.1923 35.7533C19.1923 35.7533 19.1923 35.7533 19.2102 35.7533C16.6099 33.9975 14.3827 32.2059 12.6268 30.4679C10.6945 28.5735 9.32507 26.7283 8.60574 25.0082C7.94003 23.4289 7.78142 21.9545 8.25502 20.6544C8.74648 19.3028 9.87014 18.2127 11.4853 17.4241L12.8904 15.0026C7.51782 15.2304 3.88323 16.5998 2.95392 19.18C2.02237 21.7624 3.95471 25.1333 7.92216 28.6964H7.94003V28.6919ZM19.4224 14.0844C18.3322 12.2236 17.9838 10.4856 18.5087 8.99338C18.6137 8.67616 18.7902 8.36118 19.0002 8.07971C19.5095 7.28891 20.3182 6.64108 21.3704 6.13175C22.4583 5.30744 23.5998 4.53451 24.795 3.86657C18.8259 3.77945 14.6999 5.02597 13.7505 7.67761C13.2411 9.08273 13.679 10.7336 14.8741 12.5408C15.6292 13.6645 16.6814 14.8417 17.9994 16.0704C18.2809 16.334 18.5959 16.5797 18.8952 16.8433C19.791 17.547 22.9341 19.9172 26.2694 21.1279C26.2694 21.1279 26.2873 21.1279 26.3051 21.1279C23.1106 18.722 20.7047 16.3161 19.4045 14.0867H19.4224V14.0844Z" fill="white"/>
</svg>
