<svg width="92" height="75" viewBox="0 0 92 75" fill="none" xmlns="http://www.w3.org/2000/svg">
<mask id="mask0_2005_4303" style="mask-type:luminance" maskUnits="userSpaceOnUse" x="8" y="0" width="84" height="74">
<path d="M86.5537 0.000224397L8.06836 6.17715L13.4036 73.9675L91.8889 67.7906L86.5537 0.000224397Z" fill="white"/>
</mask>
<g mask="url(#mask0_2005_4303)">
<path d="M14.4821 37.0235C13.1046 35.8636 11.9926 34.7187 11.1283 33.5879C11.6828 28.5607 13.3364 23.8324 15.8637 19.6717C16.6369 20.5274 17.565 21.3865 18.6919 22.2658C18.9163 22.4409 19.1587 22.6168 19.401 22.7904C17.0174 27.3834 15.7212 32.6102 15.7991 38.0985C15.3323 37.7476 14.8811 37.3955 14.4655 37.0405L14.4821 37.0235ZM15.9064 40.1158C15.8925 39.9398 15.8788 39.7661 15.865 39.5902C15.4064 39.344 14.9266 39.0837 14.4836 38.8362C13.1912 38.0752 12.0049 37.3238 10.9232 36.5619C10.9052 37.6725 10.9221 38.7983 11.0117 39.9363C11.3905 44.7489 12.767 49.2566 14.9129 53.2601C14.9499 53.2751 14.986 53.3059 15.0232 53.3232L15.0339 53.0041L21.7523 56.2265C18.4873 51.6411 16.3801 46.1354 15.9064 40.1158ZM20.4849 20.8744C25.6788 12.3292 34.7528 6.33124 45.4804 5.48696C56.2103 4.6425 60.4681 7.03671 66.3533 11.1179C59.8186 5.73213 51.2748 2.77668 42.1551 3.49442C33.0353 4.21215 24.1634 8.96177 18.5273 15.9037C18.4212 17.2319 18.9222 18.6714 19.9557 20.1586C20.1153 20.3925 20.2927 20.6251 20.4857 20.8564L20.4871 20.8742L20.4849 20.8744ZM23.1658 58.0715C22.4775 57.8097 21.7881 57.5637 21.1151 57.2984C19.2986 56.5966 17.6018 55.8495 15.9918 55.0956C25.4968 70.4634 45.2574 75.5993 60.9503 67.0906C55.674 69.4083 36.8541 74.6585 23.1479 58.0706L23.1657 58.0692L23.1658 58.0715ZM89.8423 41.9044C89.8423 41.9044 90.1043 45.6887 90.1139 45.8112C90.2091 47.0205 89.4467 46.9572 89.4467 46.9572L90.1463 57.8396C90.0806 59.0257 88.1843 59.3318 88.1843 59.3318L84.6144 59.8413C83.691 61.7469 82.3839 61.9372 82.3839 61.9372L79.3373 62.177C77.7093 62.3051 76.3302 60.4417 76.3302 60.4417L61.0011 61.6997C60.5523 64.4822 58.487 64.6627 58.487 64.6627L58.4358 64.6667L55.4797 64.9173L31.8795 58.8848L52.429 61.0903C52.1713 60.4922 51.9841 59.9086 51.8978 59.4941C51.6055 57.7738 51.274 54.7008 52.4657 52.6172C52.7904 52.0449 53.872 51.0096 55.0736 50.8456C55.0736 50.8456 53.0025 50.2691 51.86 52.2951C51.86 52.2951 51.0701 53.22 51.0925 56.864C51.0925 56.864 51.1986 58.4399 51.3568 59.5389C50.8792 59.507 49.7717 59.3298 49.7717 59.3298C48.7444 51.8569 51.3932 50.3779 51.3932 50.3779L51.2154 48.1197C50.965 48.0699 50.9828 47.84 50.9828 47.84L50.8643 46.3345C50.7262 46.3454 50.5987 46.3195 50.4722 46.278C50.5324 47.6984 50.6084 48.8912 50.6745 49.7308C48.0142 51.4908 48.8572 58.4158 48.8572 58.4158L23.9993 53.6565L45.8762 52.7974L45.5542 49.1613L23.348 47.4021L45.0565 43.4931L44.7592 40.171L22.3056 41.5325L44.3098 35.1152L44.0193 31.8799L22.6696 35.8503L43.6539 27.6646L43.3167 23.8347L21.2849 30.1287L45.1002 17.8817C45.8557 17.6295 46.6334 17.4607 47.4232 17.4165L67.9936 16.0441C69.3081 15.9765 70.3046 16.3372 70.5647 17.6209L50.7522 19.4267C50.3313 19.4598 50.0009 19.7323 49.8717 20.1122C50.2419 19.8904 50.5956 19.9141 50.5956 19.9141L76.4677 18.1423C83.7818 19.0815 84.9602 23.5488 84.9602 23.5488C86.7707 28.4436 88.1358 35.0272 88.1358 35.0272C88.5958 35.2913 88.824 35.9411 88.824 35.9411L89.1659 40.9695C89.5706 41.4127 89.8371 41.8668 89.8371 41.8668L89.8401 41.9046L89.8423 41.9044ZM62.5916 25.9613C63.1851 29.2601 64.1423 36.9514 64.1423 36.9514C69.8655 36.9245 86.4439 35.1963 86.4439 35.1963C85.2928 28.4008 83.9714 24.3661 83.9714 24.3661L62.6107 25.9755L62.5916 25.9613ZM86.6799 40.2173L85.9739 40.6426L70.8911 41.8991L68.4622 41.474L70.7705 42.843L85.9865 41.4864L86.6813 40.2351L86.6799 40.2173ZM85.7886 43.6688L71.9802 45.002L69.7258 44.5453L71.75 45.8649L85.7842 44.496L86.479 43.2447L85.773 43.67L85.7886 43.6688ZM66.7381 44.8499L66.2206 44.5388C66.0542 44.4466 65.878 44.6554 65.9109 44.8456L66.2093 47.7262C66.2259 47.9377 66.3443 48.1032 66.5284 48.194L67.1172 48.4995C67.1172 48.4995 66.7492 44.9342 66.7437 44.8652L66.7425 44.8496L66.7381 44.8499ZM52.4532 23.1313L59.2281 22.8289L59.2848 24.0054L54.2081 24.8441L58.8307 24.7268C59.6287 24.7873 59.9124 24.1487 59.9124 24.1487L59.8241 22.5714C59.6822 22.1075 59.1429 22.2015 59.1429 22.2015L52.452 23.1157L52.4532 23.1313ZM55.6111 54.9712C55.7002 54.9642 55.7693 54.9588 55.8411 54.989C55.4431 54.4018 54.9756 54.0711 54.4893 54.1273C53.4944 54.2415 52.8766 56.0155 53.1273 58.0909C53.3613 60.152 54.365 61.7447 55.3779 61.6313C55.7276 61.6038 56.0095 61.371 56.2434 60.9828C55.4686 60.99 54.7045 59.7662 54.5228 58.1402C54.3206 56.4822 54.8256 55.0689 55.6111 54.9712ZM52.4233 47.8073L52.5185 49.0165C52.5185 49.0165 57.0063 47.8701 58.9121 51.6998C58.995 51.8703 58.4265 46.8956 52.4233 47.8073ZM61.0102 40.7743L50.2211 39.7568L59.4556 41.4075L59.6226 43.9848L51.5185 45.0797L61.2796 44.9098L60.9873 40.7402L61.0102 40.7743ZM61.5235 36.79L60.5868 26.2266L51.3158 27.0437L51.7317 32.9827C51.7317 32.9827 51.7964 34.9159 53.2485 35.0302L61.5235 36.79ZM68.5717 52.0331L63.6324 52.368C63.4208 52.3847 63.2609 52.5743 63.2774 52.7836L63.4441 54.9015C63.4442 55.1301 63.6317 55.2923 63.8611 55.2743L71.2538 54.7642C71.2538 54.7642 71.1558 51.9529 68.5705 52.0175L68.5717 52.0331ZM86.5097 46.1128L85.8037 46.5381L72.8555 47.8395L70.5989 47.3829L72.7417 48.6417L85.7671 47.211L86.5083 46.095L86.5097 46.1128ZM89.1559 49.9537L88.571 50.123C88.571 50.123 86.939 50.4284 87.1277 53.0532L88.9672 52.9085C89.1587 52.8934 89.2868 52.7265 89.2893 52.5313L89.1559 49.9537ZM89.0099 42.7453C88.9961 42.5693 88.8119 42.4785 88.663 42.5799L88.2294 42.8784C88.0961 42.9785 88.0203 43.1257 88.0325 43.2816L88.2546 46.5581C89.196 46.4481 89.2111 45.9562 89.2111 45.9562L88.9933 42.7331L89.0099 42.7453Z" fill="white"/>
</g>
<path d="M20.8322 55.7374C22.5579 56.6234 24.4381 57.4793 26.4224 58.2912C24.6846 57.7064 23.0008 57.0972 21.3827 56.4672C18.8023 55.4557 16.3914 54.3772 14.2612 53.2765C6.56925 49.3017 2.06757 44.9189 2.89724 41.3669C3.40923 39.1597 5.94528 37.5865 9.88934 36.6778C9.86634 37.5244 9.917 38.3675 9.98571 39.2404L9.99815 39.3986C9.02124 40.197 8.39223 41.1451 8.12251 42.1881C7.50177 44.8072 9.34211 47.8331 12.9727 50.7719C15.0437 52.4575 17.6957 54.1513 20.8106 55.7189L20.8322 55.7374ZM10.1667 34.7916C11.5542 35.879 13.1876 36.9314 14.9976 38.0057C15.5137 38.299 16.0846 38.6058 16.6343 38.8987C17.661 39.4162 19.5974 40.3035 21.9383 40.9484C21.9383 40.9484 21.9383 40.9484 21.9561 40.947C19.2261 39.4006 16.8651 37.7893 14.9783 36.1944C12.9033 34.4575 11.3934 32.7254 10.5413 31.0671C9.75372 29.5448 9.47992 28.0874 9.85005 26.7541C10.234 25.3682 11.2686 24.1933 12.8169 23.2804L14.0277 20.7561C8.68957 21.4048 5.17361 23.0551 4.4496 25.7002C3.72354 28.3477 5.91441 31.5567 10.1492 34.7975L10.167 34.7961L10.1667 34.7916ZM20.4676 19.3283C19.2348 17.5587 18.751 15.8534 19.1573 14.3246C19.237 14.0001 19.3883 13.6723 19.5755 13.3752C20.0212 12.5469 20.7766 11.8376 21.7856 11.2473C22.8055 10.3401 23.8828 9.48003 25.0219 8.72039C19.0644 9.10186 15.0489 10.6683 14.3104 13.3862C13.9129 14.827 14.4789 16.4384 15.8122 18.1463C16.6531 19.2072 17.7944 20.2983 19.2047 21.4198C19.506 21.6605 19.8393 21.8807 20.1584 22.12C21.1067 22.7512 24.4261 24.8675 27.8461 25.8129C27.8461 25.8129 27.8639 25.8115 27.8817 25.8101C24.5083 23.6622 21.921 21.4525 20.4499 19.3319L20.4677 19.3305L20.4676 19.3283Z" fill="#FAC12E"/>
</svg>
