<svg width="28" height="28" viewBox="0 0 28 28" fill="none" xmlns="http://www.w3.org/2000/svg">
<path d="M25.9433 19.7048V17.4179L16.0336 10.1076C16.0639 8.18093 16.0614 6.23194 16.0006 4.24486C15.8897 1.89713 14.9804 0 14 0C13.0199 0 12.1106 1.89713 11.9998 4.24486C11.939 6.23194 11.9365 8.18097 11.9668 10.1076L2.0567 17.4179V19.7049L12.1284 15.5564C12.2549 18.6479 12.4095 21.7112 12.5207 24.792L9.45452 26.4898V28L14 27.207L18.5452 28V26.4898L15.4797 24.792C15.5905 21.7112 15.7448 18.6479 15.872 15.5564L25.9433 19.7048Z" fill="#FAC12E"/>
<path d="M8.33875 11.6143H6.4848V14.7263H8.33875V11.6143Z" fill="#FAC12E"/>
<path d="M21.5152 11.6143H19.6613V14.7263H21.5152V11.6143Z" fill="#FAC12E"/>
</svg>
