<svg width="1400" height="382" viewBox="0 0 1400 382" fill="none" xmlns="http://www.w3.org/2000/svg">
<path d="M1275.46 298.39V91.1044H1327.28V114.508H1334.81C1337.87 106.149 1342.89 100.02 1349.85 96.1193C1357.09 92.2188 1365.45 90.2686 1374.93 90.2686H1400V137.075H1374.09C1360.72 137.075 1349.71 140.697 1341.07 147.941C1332.44 154.906 1328.12 165.772 1328.12 180.538V298.39H1275.46Z" fill="url(#paint0_linear_227_5213)"/>
<path d="M1137.07 304.247C1116.45 304.247 1098.2 299.929 1082.32 291.292C1066.72 282.376 1054.46 269.978 1045.55 254.097C1036.91 237.938 1032.59 218.992 1032.59 197.261V192.246C1032.59 170.514 1036.91 151.708 1045.55 135.827C1054.18 119.668 1066.3 107.27 1081.9 98.6331C1097.51 89.7175 1115.62 85.2598 1136.23 85.2598C1156.57 85.2598 1174.26 89.8568 1189.31 99.051C1204.35 107.966 1216.06 120.504 1224.41 136.663C1232.77 152.544 1236.95 171.072 1236.95 192.246V210.216H1086.08C1086.64 224.425 1091.93 235.988 1101.96 244.903C1111.99 253.819 1124.25 258.276 1138.74 258.276C1153.51 258.276 1164.37 255.072 1171.34 248.664C1178.3 242.256 1183.6 235.152 1187.22 227.351L1230.26 249.918C1226.36 257.162 1220.65 265.102 1213.13 273.739C1205.89 282.098 1196.13 289.341 1183.88 295.471C1171.62 301.322 1156.02 304.247 1137.07 304.247ZM1086.5 170.932H1183.46C1182.34 158.952 1177.47 149.34 1168.83 142.096C1160.47 134.852 1149.47 131.23 1135.82 131.23C1121.61 131.23 1110.32 134.852 1101.96 142.096C1093.61 149.34 1088.45 158.952 1086.5 170.932Z" fill="url(#paint1_linear_227_5213)"/>
<path d="M871.609 298.389L805.579 91.1035H861.58L909.64 259.941H917.162L965.222 91.1035H1021.22L955.192 298.389H871.609Z" fill="url(#paint2_linear_227_5213)"/>
<path d="M725.496 298.391V91.1054H778.153V298.391H725.496ZM751.824 66.8663C742.352 66.8663 734.272 63.8016 727.585 57.6722C721.177 51.5428 717.973 43.4631 717.973 33.4332C717.973 23.4032 721.177 15.3235 727.585 9.19412C734.272 3.06471 742.352 0 751.824 0C761.576 0 769.655 3.06471 776.063 9.19412C782.471 15.3235 785.676 23.4032 785.676 33.4332C785.676 43.4631 782.471 51.5428 776.063 57.6722C769.655 63.8016 761.576 66.8663 751.824 66.8663Z" fill="url(#paint3_linear_227_5213)"/>
<path d="M457.322 195.589V188.903C457.322 167.171 461.641 148.643 470.278 133.32C478.915 117.718 490.338 105.877 504.547 97.7972C519.034 89.4389 534.776 85.2598 551.771 85.2598C570.717 85.2598 585.065 88.6031 594.816 95.2897C604.568 101.976 611.672 108.942 616.13 116.185H623.652V91.1106H675.474V335.173C675.474 349.382 671.295 360.665 662.936 369.024C654.578 377.661 643.434 381.979 629.503 381.979H490.756V336.008H611.115C618.916 336.008 622.817 331.829 622.817 323.471V269.56H615.294C612.508 274.018 608.607 278.615 603.592 283.351C598.578 287.809 591.891 291.57 583.533 294.635C575.174 297.7 564.587 299.232 551.771 299.232C534.776 299.232 519.034 295.192 504.547 287.112C490.338 278.754 478.915 266.913 470.278 251.59C461.641 235.988 457.322 217.321 457.322 195.589ZM566.816 253.261C582.975 253.261 596.488 248.107 607.354 237.799C618.219 227.49 623.652 213.002 623.652 194.335V190.156C623.652 171.211 618.219 156.723 607.354 146.693C596.767 136.385 583.254 131.23 566.816 131.23C550.657 131.23 537.144 136.385 526.278 146.693C515.413 156.723 509.98 171.211 509.98 190.156V194.335C509.98 213.002 515.413 227.49 526.278 237.799C537.144 248.107 550.657 253.261 566.816 253.261Z" fill="url(#paint4_linear_227_5213)"/>
<path d="M318.448 304.247C297.831 304.247 279.303 300.068 262.865 291.71C246.427 283.351 233.472 271.232 223.999 255.351C214.527 239.47 209.79 220.386 209.79 198.097V191.41C209.79 169.121 214.527 150.037 223.999 134.156C233.472 118.275 246.427 106.156 262.865 97.7972C279.303 89.4389 297.831 85.2598 318.448 85.2598C339.065 85.2598 357.593 89.4389 374.031 97.7972C390.469 106.156 403.424 118.275 412.897 134.156C422.369 150.037 427.106 169.121 427.106 191.41V198.097C427.106 220.386 422.369 239.47 412.897 255.351C403.424 271.232 390.469 283.351 374.031 291.71C357.593 300.068 339.065 304.247 318.448 304.247ZM318.448 257.441C334.607 257.441 347.981 252.286 358.568 241.978C369.155 231.391 374.449 216.346 374.449 196.843V192.664C374.449 173.161 369.155 158.256 358.568 147.947C348.259 137.36 334.886 132.066 318.448 132.066C302.289 132.066 288.915 137.36 278.328 147.947C267.741 158.256 262.447 173.161 262.447 192.664V196.843C262.447 216.346 267.741 231.391 278.328 241.978C288.915 252.286 302.289 257.441 318.448 257.441Z" fill="url(#paint5_linear_227_5213)"/>
<path d="M0 298.384V5.84375H55.1647V248.234H188.897V298.384H0Z" fill="url(#paint6_linear_227_5213)"/>
<defs>
<linearGradient id="paint0_linear_227_5213" x1="1275.46" y1="194.329" x2="1400" y2="194.329" gradientUnits="userSpaceOnUse">
<stop stop-color="#09262D"/>
<stop offset="1" stop-color="#0B4958"/>
</linearGradient>
<linearGradient id="paint1_linear_227_5213" x1="1032.59" y1="194.753" x2="1236.95" y2="194.753" gradientUnits="userSpaceOnUse">
<stop stop-color="#09262D"/>
<stop offset="1" stop-color="#0B4958"/>
</linearGradient>
<linearGradient id="paint2_linear_227_5213" x1="805.579" y1="194.746" x2="1021.22" y2="194.746" gradientUnits="userSpaceOnUse">
<stop stop-color="#09262D"/>
<stop offset="1" stop-color="#0B4958"/>
</linearGradient>
<linearGradient id="paint3_linear_227_5213" x1="717.973" y1="149.195" x2="785.676" y2="149.195" gradientUnits="userSpaceOnUse">
<stop stop-color="#09262D"/>
<stop offset="1" stop-color="#0B4958"/>
</linearGradient>
<linearGradient id="paint4_linear_227_5213" x1="457.322" y1="233.619" x2="675.474" y2="233.619" gradientUnits="userSpaceOnUse">
<stop stop-color="#09262D"/>
<stop offset="1" stop-color="#0B4958"/>
</linearGradient>
<linearGradient id="paint5_linear_227_5213" x1="209.79" y1="194.753" x2="427.106" y2="194.753" gradientUnits="userSpaceOnUse">
<stop stop-color="#09262D"/>
<stop offset="1" stop-color="#0B4958"/>
</linearGradient>
<linearGradient id="paint6_linear_227_5213" x1="0" y1="152.114" x2="188.897" y2="152.114" gradientUnits="userSpaceOnUse">
<stop stop-color="#09262D"/>
<stop offset="1" stop-color="#0B4958"/>
</linearGradient>
</defs>
</svg>
