<svg width="52" height="52" viewBox="0 0 52 52" fill="none" xmlns="http://www.w3.org/2000/svg">
<path d="M13.884 29.432C9.08795 29.432 5.19999 33.32 5.19999 38.116C5.19999 42.9121 9.08795 46.8 13.884 46.8C18.68 46.8 22.568 42.9121 22.568 38.116C22.568 33.32 18.68 29.432 13.884 29.432Z" fill="#F94735"/>
<path d="M16.796 18.044L33.956 35.204C34.632 35.88 34.632 36.972 33.956 37.648C33.28 38.324 32.188 38.324 31.512 37.648L14.352 20.488C13.676 19.812 13.676 18.72 14.352 18.044C14.976 17.368 16.12 17.368 16.796 18.044Z" fill="#F94735"/>
<path d="M19.24 10.7121L41.288 32.7601C41.964 33.4361 41.964 34.5281 41.288 35.2041C40.612 35.8801 39.52 35.8801 38.844 35.2041L16.796 13.1561C16.12 12.4801 16.12 11.3881 16.796 10.7121C17.472 10.0361 18.564 10.0361 19.24 10.7121Z" fill="#F94735"/>
<path d="M46.8 29.172V6.76001C46.8 5.87601 46.124 5.20001 45.24 5.20001H22.828C21.424 5.20001 20.748 6.86401 21.736 7.85201L44.148 30.264C45.136 31.252 46.8 30.576 46.8 29.172Z" fill="#F94735"/>
</svg>
