<svg width="52" height="52" viewBox="0 0 52 52" fill="none" xmlns="http://www.w3.org/2000/svg">
<path d="M26 46.8C28.5693 44.4236 30.1912 41.0348 30.1912 37.2668C30.1912 33.4989 28.5693 30.1096 26 27.7332H37.2668C42.5308 27.7332 46.8 32.0024 46.8 37.2668C46.8 42.5308 42.5308 46.8 37.2668 46.8H26Z" fill="#F94735"/>
<path d="M5.19995 46.8C7.76927 44.4236 9.39115 41.0348 9.39115 37.2668C9.39115 33.4989 7.76927 30.1096 5.19995 27.7332H16.4668C21.7292 27.7332 25.9984 32.0024 25.9984 37.2668C25.9984 42.5308 21.7292 46.8 16.4668 46.8H5.19995Z" fill="#F94735"/>
<path d="M26 24.2668C28.5693 21.8899 30.1912 18.5016 30.1912 14.7336C30.1912 10.9657 28.5693 7.57635 26 5.19995H37.2668C42.5308 5.19995 46.8 9.46863 46.8 14.7331C46.8 19.9976 42.5308 24.2663 37.2668 24.2663L26 24.2668Z" fill="#F94735"/>
<path d="M5.19995 24.2668C7.76927 21.8899 9.39115 18.5016 9.39115 14.7336C9.39115 10.9657 7.76927 7.57635 5.19995 5.19995H16.4668C21.7292 5.19995 25.9984 9.46863 25.9984 14.7331C25.9984 19.9976 21.7292 24.2663 16.4668 24.2663L5.19995 24.2668Z" fill="#F94735"/>
</svg>
