<svg width="52" height="52" viewBox="0 0 52 52" fill="none" xmlns="http://www.w3.org/2000/svg">
<g opacity="0.28">
<path d="M34.6612 4.02613C34.9363 4.02613 35.159 3.8032 35.159 3.52827V2.72491C35.159 2.44998 34.9364 2.22705 34.6612 2.22705C34.3861 2.22705 34.1633 2.44998 34.1633 2.72491V3.52827C34.1633 3.8032 34.3861 4.02613 34.6612 4.02613Z" fill="white"/>
<path d="M34.1633 13.9583V14.7617C34.1633 15.0366 34.386 15.2595 34.6612 15.2595C34.9363 15.2595 35.159 15.0366 35.159 14.7617V13.9583C35.159 13.6834 34.9364 13.4604 34.6612 13.4604C34.3861 13.4606 34.1633 13.6834 34.1633 13.9583Z" fill="white"/>
<path d="M30.6217 12.0789L30.0533 12.6469C29.8588 12.8411 29.8588 13.1565 30.0533 13.3509C30.2478 13.5454 30.5629 13.5454 30.7573 13.3509L31.3256 12.7828C31.5201 12.5886 31.5201 12.2733 31.3256 12.0789C31.1312 11.8845 30.8162 11.8845 30.6217 12.0789Z" fill="white"/>
<path d="M37.9967 12.0789C37.8022 12.2731 37.8022 12.5884 37.9967 12.7828L38.5645 13.3509C38.759 13.5454 39.0741 13.5454 39.2685 13.3509C39.463 13.1567 39.463 12.8413 39.2685 12.6469L38.7006 12.0789C38.5061 11.8845 38.1912 11.8845 37.9967 12.0789Z" fill="white"/>
<path d="M30.6217 5.40758C30.8162 5.60208 31.1312 5.60208 31.3256 5.40758C31.5201 5.21309 31.5201 4.89784 31.3256 4.70365L30.7573 4.13562C30.5628 3.94112 30.2477 3.94112 30.0533 4.13562C29.8588 4.33011 29.8588 4.64536 30.0533 4.83955L30.6217 5.40758Z" fill="white"/>
<path d="M28.6429 9.24084H29.446C29.7212 9.24084 29.9439 9.01791 29.9439 8.74298C29.9439 8.46805 29.7213 8.24512 29.446 8.24512H28.6429C28.3677 8.24512 28.145 8.46805 28.145 8.74298C28.145 9.01791 28.3676 9.24084 28.6429 9.24084Z" fill="white"/>
<path d="M45.3404 4.25266C45.1611 4.25266 44.982 4.26759 44.8077 4.29745C44.5886 2.78396 43.2794 1.61914 41.7062 1.61914C40.133 1.61914 38.8237 2.78406 38.6046 4.29745C38.4305 4.26759 38.2562 4.25266 38.0769 4.25266C37.2903 4.25266 36.5785 4.54637 36.0259 5.01935C35.6028 4.8601 35.1447 4.76544 34.6618 4.76544C32.4663 4.76544 30.6841 6.54766 30.6841 8.74314C30.6841 10.9386 32.4663 12.7208 34.6618 12.7208C36.215 12.7208 37.5542 11.8198 38.2113 10.5204H45.3403C47.0677 10.5204 48.4716 9.11648 48.4716 7.38901C48.4717 5.66153 47.0678 4.25266 45.3404 4.25266ZM45.3404 9.52476H38.0769C36.8971 9.52476 35.9363 8.56388 35.9363 7.38901C35.9363 6.20916 36.8971 5.24837 38.0769 5.24837C38.3557 5.24837 38.6295 5.30312 38.8934 5.4127C39.0478 5.4774 39.2319 5.45749 39.3713 5.35796C39.5107 5.25345 39.5904 5.08912 39.5755 4.91982C39.4859 3.64034 40.4915 2.61486 41.7063 2.61486C42.9209 2.61486 43.9316 3.64044 43.8369 4.91982C43.827 5.08902 43.9016 5.25335 44.0411 5.35796C44.1804 5.45749 44.3647 5.4774 44.524 5.4127C44.7879 5.30312 45.0617 5.24837 45.3405 5.24837C46.5153 5.24837 47.4761 6.20916 47.4761 7.38901C47.4761 8.56388 46.5152 9.52476 45.3404 9.52476Z" fill="white"/>
<path d="M51.3442 25.2911C51.4139 25.1368 51.4039 24.9576 51.3144 24.8132C51.2198 24.6689 51.0605 24.5842 50.8913 24.5842H49.7562V18.4957C49.7562 18.2219 49.5322 17.9978 49.2583 17.9978H46.3311V14.4085C46.3311 14.1347 46.112 13.9106 45.8332 13.9106C45.5594 13.9106 45.3354 14.1347 45.3354 14.4085V17.9978H42.7765C42.5824 17.9978 42.4032 18.1124 42.3236 18.2866L39.4162 24.5842H36.0608C35.8716 24.5842 35.7024 24.6887 35.6177 24.858L31.6649 32.7087H31.3612V25.082C31.3612 24.8032 31.1372 24.5842 30.8633 24.5842H24.8346V16.9523C24.8346 16.6785 24.6105 16.4545 24.3367 16.4545H11.2786C11.0048 16.4545 10.7808 16.6785 10.7808 16.9523V24.5842H4.75203C4.47822 24.5842 4.25417 24.8032 4.25417 25.082V32.7087H2.5466C2.3774 32.7087 2.21804 32.7984 2.12847 32.9378C2.03889 33.0821 2.02396 33.2613 2.09363 33.4157L6.29537 42.5808L5.33957 42.2274C3.98046 41.7196 2.56163 41.4607 1.10797 41.4607C0.834154 41.4607 0.610107 41.6798 0.610107 41.9586C0.610107 42.2324 0.834154 42.4564 1.10797 42.4564C2.43722 42.4564 3.74646 42.6904 4.99111 43.1584C5.61836 43.3924 7.32593 44.0296 7.43044 44.0694C10.044 45.0402 12.9316 45.085 15.5601 44.184L17.0436 43.6812C19.3138 42.9095 21.8179 42.8946 24.093 43.6463L26.1092 44.3134C28.4739 45.09 31.2369 45.1398 33.7609 44.2885L35.5879 43.6712C37.9626 42.8697 40.6012 42.9394 42.6423 43.6612C44.1158 44.0795 45.7338 44.9507 48.4718 44.9507H49.6815C49.9603 44.9507 50.1794 44.7266 50.1794 44.4528C50.1794 44.174 49.9603 43.955 49.6815 43.955H48.4717C45.9726 43.955 44.499 43.1684 43.2744 42.8199L47.5856 33.4158L51.3442 25.2911ZM43.0951 18.9935H48.7605V24.5843H40.5114L43.0951 18.9935ZM25.8253 29.5526C25.9797 29.6571 26.1788 29.672 26.3431 29.5874C26.5074 29.5028 26.607 29.3285 26.607 29.1443V25.5799H30.3656V32.7088H18.3081V25.5799H22.0617V29.1443C22.0617 29.3285 22.1662 29.5027 22.3306 29.5874C22.4899 29.672 22.694 29.6571 22.8434 29.5526L24.3368 28.5071L25.8253 29.5526ZM11.7765 17.4503H15.5351V21.0147C15.5351 21.199 15.6347 21.3732 15.804 21.4579C15.9683 21.5425 16.1673 21.5275 16.3167 21.423L17.8102 20.3775L19.2987 21.423C19.448 21.5275 19.6522 21.5425 19.8165 21.4579C19.9808 21.3733 20.0803 21.199 20.0803 21.0147V17.4503H23.839V24.5843H11.7765V17.4503ZM5.24979 25.5799H9.00841V29.1443C9.00841 29.3285 9.10794 29.5027 9.27725 29.5874C9.44158 29.672 9.64064 29.6571 9.79004 29.5526L11.2785 28.5071L12.772 29.5526C12.9213 29.6571 13.1205 29.672 13.2898 29.5874C13.4541 29.5028 13.5536 29.3285 13.5536 29.1443V25.5799H17.3123V32.7088H5.24979V25.5799ZM42.3186 42.5211C40.1181 41.9237 37.5593 41.9585 35.2692 42.7302L33.4421 43.3425C31.177 44.1043 28.6878 44.1142 26.4226 43.3674L24.4064 42.7004C21.8475 41.859 19.0696 41.9386 16.7198 42.7402L15.2413 43.243C11.2736 44.5971 7.66433 43.0837 7.61447 43.0737L3.32315 33.7045H31.9735C32.1578 33.7045 32.3319 33.6 32.4165 33.4307L36.3693 25.5799H50.1145L46.6795 33.0026L42.3186 42.5211Z" fill="white"/>
<path d="M49.6847 50.3813C49.9598 50.3813 50.1826 50.1583 50.1826 49.8834C50.1826 49.6085 49.9599 49.3856 49.6847 49.3856H48.4747C45.9191 49.3856 44.3903 48.5575 42.9562 48.1466C40.4767 47.3199 37.7474 47.3247 35.2708 48.159L33.44 48.776C31.1793 49.538 28.6867 49.5453 26.4217 48.7986L24.4075 48.1345C21.9242 47.316 19.1953 47.3296 16.7208 48.172L15.2416 48.6761C12.8237 49.5002 10.1745 49.4615 7.78091 48.5675L5.34179 47.6563C3.98349 47.1492 2.55999 46.8921 1.1109 46.8921C0.835967 46.8921 0.613037 47.115 0.613037 47.3899C0.613037 47.6649 0.835967 47.8878 1.1109 47.8878C2.44055 47.8878 3.74685 48.1238 4.99343 48.5893L7.43255 49.5004C10.0404 50.474 12.9272 50.516 15.5627 49.6188L17.0421 49.1147C19.3129 48.3417 21.8173 48.3293 24.0954 49.0801L26.1096 49.7443C28.5793 50.5588 31.2951 50.5496 33.758 49.7197L35.5888 49.1027C37.8617 48.3362 40.3663 48.3331 42.6411 49.0912C44.0961 49.5055 45.7327 50.3813 48.4747 50.3813H49.6847Z" fill="white"/>
<path d="M43.0156 35.8501V36.6716C43.0156 37.6772 42.1991 38.4937 41.1986 38.4937C40.6758 38.4937 40.2079 38.2696 39.8793 37.9162C39.5457 38.2696 39.0777 38.4937 38.555 38.4937C37.5543 38.4937 36.7378 37.6772 36.7378 36.6716V35.8501C36.7378 35.5763 36.9569 35.3523 37.2357 35.3523C37.5095 35.3523 37.7335 35.5763 37.7335 35.8501V36.6716C37.7335 37.1246 38.102 37.498 38.555 37.498C39.008 37.498 39.3814 37.1246 39.3814 36.6716V33.4158C37.8033 33.1718 36.5935 31.8127 36.5935 30.1699C36.5935 28.3578 38.0671 26.8843 39.8792 26.8843C41.6863 26.8843 43.1599 28.3578 43.1599 30.1699C43.1599 31.8128 41.9502 33.1719 40.377 33.4158V36.6716C40.377 37.1246 40.7455 37.498 41.1985 37.498C41.6514 37.498 42.0199 37.1246 42.0199 36.6716V35.8501C42.0199 35.5763 42.2439 35.3523 42.5178 35.3523C42.7965 35.3524 43.0156 35.5763 43.0156 35.8501Z" fill="white"/>
<path d="M4.46296 13.1937H11.7258C13.4532 13.1937 14.8587 11.7882 14.8587 10.0608C14.8587 8.33325 13.4532 6.92772 11.7258 6.92772C11.5471 6.92772 11.3697 6.94306 11.1946 6.97343C10.9748 5.45923 9.66834 4.29248 8.09432 4.29248C6.52031 4.29248 5.2136 5.45933 4.99392 6.97353C4.81893 6.94316 4.64171 6.92782 4.46306 6.92782C2.73548 6.92782 1.32996 8.33335 1.32996 10.0609C1.32985 11.7882 2.73538 13.1937 4.46296 13.1937ZM4.46296 7.92344C4.74103 7.92344 5.01546 7.97818 5.2785 8.08635C5.43745 8.15074 5.61904 8.13032 5.75879 8.02947C5.89834 7.92882 5.97614 7.76328 5.96415 7.59164C5.87488 6.29407 6.89436 5.2882 8.09432 5.2882C9.29296 5.2882 10.3136 6.29265 10.2242 7.59164C10.2123 7.76328 10.2901 7.92882 10.4295 8.02947C10.5693 8.13032 10.7507 8.15155 10.9098 8.08635C11.1729 7.97818 11.4473 7.92344 11.7256 7.92344C12.904 7.92344 13.8628 8.88239 13.8628 10.0608C13.8628 11.2393 12.904 12.198 11.7256 12.198H4.46296C3.28453 12.198 2.32557 11.2393 2.32557 10.0608C2.32557 8.88239 3.28453 7.92344 4.46296 7.92344Z" fill="white"/>
</g>
</svg>
