<svg width="52" height="52" viewBox="0 0 52 52" fill="none" xmlns="http://www.w3.org/2000/svg">
<g opacity="0.28">
<path d="M12.1333 35.5332C10.6974 35.5332 9.53333 36.6973 9.53333 38.1332C9.53333 39.5691 10.6973 40.7332 12.1333 40.7332C13.5693 40.7332 14.7333 39.5692 14.7333 38.1332C14.7317 36.6979 13.5686 35.5347 12.1333 35.5332ZM12.1333 38.9998C11.6547 38.9998 11.2667 38.6119 11.2667 38.1332C11.2667 37.6545 11.6547 37.2666 12.1333 37.2666C12.612 37.2666 13 37.6545 13 38.1332C12.9995 38.6117 12.6118 38.9993 12.1333 38.9998Z" fill="white"/>
<path d="M39.8666 35.5332C38.4307 35.5332 37.2666 36.6973 37.2666 38.1332C37.2666 39.5691 38.4307 40.7332 39.8666 40.7332C41.3025 40.7332 42.4666 39.5692 42.4666 38.1332C42.4651 36.6979 41.3019 35.5347 39.8666 35.5332ZM39.8666 38.9998C39.3879 38.9998 39 38.6119 39 38.1332C39 37.6545 39.388 37.2666 39.8666 37.2666C40.3453 37.2666 40.7332 37.6545 40.7332 38.1332C40.7328 38.6117 40.3451 38.9993 39.8666 38.9998Z" fill="white"/>
<path d="M51.3394 23.1967L45.3693 16.4732C44.8747 15.9163 44.165 15.5983 43.4201 15.5998H35.5334V10.3998C35.5318 8.96452 34.3686 7.80133 32.9334 7.7998H2.6C1.16472 7.80133 0.00152352 8.96452 8.46389e-08 10.3998V32.9332C-0.000101478 33.163 0.0912032 33.3835 0.253805 33.5461C0.416305 33.7086 0.636797 33.7999 0.866735 33.7999H1.73337V36.3999C1.73489 37.8352 2.89809 38.9984 4.33337 38.9999H6.1359C6.56307 41.9838 9.11899 44.1999 12.1334 44.1999C15.1477 44.1999 17.7037 41.9838 18.1308 38.9999H33.8694C34.2965 41.9838 36.8525 44.1999 39.8668 44.1999C42.8812 44.1999 45.4371 41.9838 45.8643 38.9999H49.4C50.8353 38.9984 51.9985 37.8352 52 36.3999V24.925C51.9994 24.2873 51.7643 23.6722 51.3394 23.1967ZM1.73337 32.0664V10.3998C1.73387 9.92134 2.12154 9.53358 2.6 9.53317H32.9334C33.4118 9.53368 33.7996 9.92134 33.8 10.3998V32.0664H1.73337ZM6.1359 37.2664H4.33337C3.85491 37.2659 3.46714 36.8783 3.46673 36.3998V33.7998H7.89588C6.94383 34.7303 6.32521 35.9488 6.1359 37.2664ZM12.1334 42.4664C9.74015 42.4664 7.8 40.5263 7.8 38.1331C7.8 35.7399 9.74015 33.7998 12.1334 33.7998C14.5266 33.7998 16.4667 35.74 16.4667 38.1332C16.4639 40.5252 14.5254 42.4637 12.1334 42.4664ZM20.8 37.2664H18.1307C17.9414 35.9488 17.3229 34.7302 16.3709 33.7998H20.8V37.2664ZM28.6 37.2664H22.5334V33.7998H28.6V37.2664ZM33.8693 37.2664H30.3334V33.7998H35.6291C34.6771 34.7303 34.0586 35.9488 33.8693 37.2664ZM39.8666 42.4664C37.4734 42.4664 35.5333 40.5263 35.5333 38.1331C35.5333 35.7399 37.4733 33.7997 39.8666 33.7997C42.2598 33.7997 44.2 35.7399 44.2 38.1331C44.1972 40.5252 42.2587 42.4637 39.8666 42.4664ZM50.2666 36.3998C50.2661 36.8783 49.8785 37.266 49.4 37.2664H45.8641C45.432 34.2853 42.8791 32.0718 39.8666 32.0664H35.5333V17.3332H39V25.9998C39.0015 27.4351 40.1647 28.5983 41.6 28.5998H50.2666V36.3998ZM50.2666 26.8664H41.6C41.1215 26.8659 40.7338 26.4783 40.7334 25.9998V17.3332H43.4201C43.6689 17.3318 43.9064 17.4372 44.0722 17.6226L50.0445 24.3486C50.1867 24.507 50.2657 24.7121 50.2667 24.925L50.2666 26.8664Z" fill="white"/>
</g>
</svg>
