<svg width="52" height="52" viewBox="0 0 52 52" fill="none" xmlns="http://www.w3.org/2000/svg">
<g opacity="0.28">
<path d="M32.9063 41.5999H19.0126C18.0376 41.5999 17.1438 41.4374 16.1688 41.1937H16.0876C12.1876 39.8937 9.50635 36.3187 9.50635 32.1749V9.34365C9.50635 6.09365 12.1063 3.49365 15.3563 3.49365H36.4001C39.6501 3.49365 42.2501 6.09365 42.2501 9.34365V32.1749C42.2501 36.3187 39.6501 39.8937 35.6688 41.1937C34.8563 41.4374 33.9626 41.5999 32.9063 41.5999ZM16.5751 39.5687C16.6563 39.5687 16.6563 39.5687 16.5751 39.5687C17.3876 39.8124 18.2001 39.9749 19.0126 39.9749H32.9063C33.7188 39.9749 34.5313 39.8124 35.2626 39.5687C38.5126 38.5124 40.7063 35.5874 40.7063 32.1749V9.34365C40.7063 6.9874 38.8376 5.11865 36.4813 5.11865H15.5188C13.1626 5.11865 11.2938 6.9874 11.2938 9.34365V32.1749C11.2126 35.5062 13.4063 38.5124 16.5751 39.5687Z" fill="white"/>
<path d="M17.7125 36.2376C15.8438 36.2376 14.3 34.6938 14.3 32.8251C14.3 30.9563 15.8438 29.4126 17.7125 29.4126C19.5813 29.4126 21.125 30.9563 21.125 32.8251C21.125 34.6938 19.5813 36.2376 17.7125 36.2376ZM17.7125 31.1188C16.7375 31.1188 15.925 31.9313 15.925 32.9063C15.925 33.8813 16.7375 34.6938 17.7125 34.6938C18.6875 34.6938 19.5 33.8813 19.5 32.9063C19.5 31.8501 18.6875 31.1188 17.7125 31.1188Z" fill="white"/>
<path d="M34.2875 36.2376C32.4188 36.2376 30.875 34.6938 30.875 32.8251C30.875 30.9563 32.4188 29.4126 34.2875 29.4126C36.1563 29.4126 37.7 30.9563 37.7 32.8251C37.6188 34.6938 36.075 36.2376 34.2875 36.2376ZM34.2875 31.1188C33.3125 31.1188 32.5 31.9313 32.5 32.9063C32.5 33.8813 33.3125 34.6938 34.2875 34.6938C35.2625 34.6938 36.075 33.8813 36.075 32.9063C35.9938 31.8501 35.1813 31.1188 34.2875 31.1188Z" fill="white"/>
<path d="M26.0001 22.3438C22.1001 22.3438 18.2813 21.6938 14.7063 20.3125C14.3813 20.2312 14.1376 19.9062 14.1376 19.5813V10.1562C14.1376 9.66875 14.4626 9.34375 14.9501 9.34375H36.9688C37.4563 9.34375 37.7813 9.66875 37.7813 10.1562V19.5C37.7813 19.825 37.5376 20.15 37.2126 20.2312C33.6376 21.6937 29.9001 22.3438 26.0001 22.3438ZM15.7626 19.0125C19.0126 20.15 22.4251 20.7188 25.9188 20.7188H26.0001C29.4938 20.7188 32.9063 20.15 36.2376 19.0125V11.05H15.7626V19.0125Z" fill="white"/>
<path d="M25.2688 9.9126H26.8938V21.2876H25.2688V9.9126Z" fill="white"/>
<path d="M14.3813 50.5376H9.99379C9.66879 50.5376 9.42504 50.3751 9.26254 50.1313C9.10004 49.8876 9.10004 49.5626 9.34379 49.3188L15.7625 39.8938C15.925 39.6501 16.1688 39.5688 16.4125 39.5688V40.3813L17.0625 40.8688L11.4563 48.9938H13.8938L19.9875 40.3001L21.2875 41.2751L14.95 50.2938C14.8688 50.4563 14.625 50.5376 14.3813 50.5376Z" fill="white"/>
<path d="M42.8188 50.5373H38.4313C38.1876 50.5373 37.9438 50.3748 37.7813 50.2123L31.4438 41.1936L32.7438 40.2186L38.8376 48.9123H41.2751L35.9126 41.1123H35.5876V39.4873H36.4001C36.6438 39.4873 36.8876 39.6498 37.0501 39.8123L43.4688 49.2373C43.6313 49.4811 43.6313 49.8061 43.5501 50.0498C43.3876 50.3748 43.0626 50.5373 42.8188 50.5373Z" fill="white"/>
<path d="M15.8438 46.7998H36.8062V48.4248H15.8438V46.7998Z" fill="white"/>
<path d="M18.2001 43.4688H34.5313V45.0938H18.2001V43.4688Z" fill="white"/>
</g>
</svg>
