<svg width="52" height="52" viewBox="0 0 52 52" fill="none" xmlns="http://www.w3.org/2000/svg">
<g opacity="0.28" clip-path="url(#clip0_227_4354)">
<path d="M25.2688 11.4562C25.025 11.4562 24.8625 11.3749 24.7 11.2124C24.375 10.8874 24.375 10.3999 24.7 10.0749L25.1875 9.5874C25.5938 9.0999 25.5938 8.36865 25.1875 7.9624C24.7813 7.55615 24.05 7.55615 23.5625 7.9624L20.8813 10.6437C20.5563 10.9687 20.0688 10.9687 19.7438 10.6437C19.4188 10.3187 19.4188 9.83115 19.7438 9.50615L22.425 6.8249C23.5625 5.76865 25.2688 5.76865 26.325 6.8249C27.3813 7.88115 27.3813 9.5874 26.325 10.7249L25.8375 11.2124C25.675 11.3749 25.5125 11.4562 25.2688 11.4562Z" fill="white"/>
<path d="M14.7063 10.2373C14.4625 10.2373 14.3 10.1561 14.1375 9.99356C13.8125 9.66855 13.8125 9.18105 14.1375 8.85605L14.95 8.04355C15.3562 7.55605 15.3562 6.8248 14.95 6.41855C14.5437 6.0123 13.7312 6.0123 13.325 6.41855L10.3187 9.42481C9.99375 9.7498 9.50625 9.7498 9.18125 9.42481C8.85625 9.0998 8.85625 8.6123 9.18125 8.2873L12.1875 5.28105C13.1625 4.30605 15.1125 4.30605 16.0875 5.28105C17.1437 6.3373 17.1437 8.04356 16.0875 9.18106L15.275 9.99356C15.1125 10.1561 14.95 10.2373 14.7063 10.2373Z" fill="white"/>
<path d="M22.0188 23.9685C21.8563 23.9685 21.6938 23.8873 21.5313 23.806C16.6563 20.556 8.2063 15.7623 1.3813 12.9998C1.13755 12.9185 0.893799 12.756 0.650049 12.5123C-0.243701 11.6185 -0.243701 10.2373 0.650049 9.26225C0.650049 9.26225 0.650049 9.26225 0.731299 9.181C2.0313 7.96225 3.8188 7.3935 5.68755 7.556L25.2688 9.831L32.6626 11.0498C33.0688 11.131 33.3938 11.5373 33.3125 11.9435C33.2313 12.3498 32.8251 12.6748 32.4188 12.5935L25.025 11.3748L5.52505 9.181C4.1438 9.0185 2.8438 9.506 1.78755 10.3998C1.5438 10.7248 1.5438 11.131 1.78755 11.3748C1.8688 11.456 1.95005 11.456 2.0313 11.5373C8.8563 14.2998 17.4688 19.1748 22.425 22.506C22.8313 22.7498 22.9125 23.2373 22.6688 23.6435C22.5063 23.806 22.2625 23.9685 22.0188 23.9685Z" fill="white"/>
<path d="M42.25 32.3374C42.0063 32.3374 41.8438 32.2562 41.6813 32.0937C41.3563 31.7687 41.3563 31.2812 41.6813 30.9562L44.3625 28.2749C44.7688 27.7874 44.7688 27.0562 44.3625 26.6499C43.9563 26.2437 43.225 26.2437 42.7375 26.6499L42.25 27.1374C41.925 27.4624 41.4375 27.4624 41.1125 27.1374C40.7875 26.8124 40.7875 26.3249 41.1125 25.9999L41.6 25.5124C42.7375 24.4562 44.4438 24.4562 45.5 25.5124C46.5563 26.5687 46.5563 28.2749 45.5 29.4124L42.8188 32.0937C42.6563 32.2562 42.4938 32.3374 42.25 32.3374Z" fill="white"/>
<path d="M43.4688 42.8187C43.2251 42.8187 43.0626 42.7374 42.9001 42.5749C42.5751 42.2499 42.5751 41.7624 42.9001 41.4374L45.8251 38.4312C46.2313 37.9437 46.2313 37.2124 45.8251 36.8062C45.4188 36.3999 44.6876 36.3999 44.2001 36.8062L43.3876 37.6187C43.0626 37.9437 42.5751 37.9437 42.2501 37.6187C41.9251 37.2937 41.9251 36.8062 42.2501 36.4812L43.0626 35.6687C44.2001 34.6124 45.9063 34.6124 46.9626 35.6687C48.0188 36.7249 48.0188 38.4312 46.9626 39.5687L44.0376 42.5749C43.8751 42.7374 43.7126 42.8187 43.4688 42.8187Z" fill="white"/>
<path d="M41.3563 51.7559C40.7876 51.7559 40.1376 51.5121 39.7313 51.1059C39.4876 50.8621 39.325 50.6184 39.2438 50.3746C36.4 43.4684 31.6063 34.7746 28.275 29.7371C28.0313 29.3309 28.1125 28.8434 28.5188 28.5996C28.925 28.3559 29.4125 28.4371 29.6563 28.8434C33.0688 33.9621 37.9438 42.7371 40.7875 49.7246C40.8688 49.8059 40.8688 49.8871 40.9501 49.9684C41.1938 50.2121 41.6813 50.2121 41.925 49.9684C42.9 48.9934 43.3876 47.6121 43.2251 46.2309L40.9501 26.5684L39.8125 18.8496C39.7313 18.4434 40.0563 17.9559 40.4625 17.9559C40.8688 17.8746 41.3563 18.1996 41.3563 18.6059L42.4938 26.3246L44.7688 45.9871C44.9313 47.8559 44.2813 49.7246 42.9813 51.0246C42.5751 51.5934 41.9251 51.7559 41.3563 51.7559Z" fill="white"/>
<path d="M11.5375 38.8374C11.375 38.8374 11.2125 38.7562 11.05 38.6749L2.35625 32.8249C1.95 32.4999 1.70625 32.0124 1.625 31.5249C1.625 31.0374 1.7875 30.6312 2.1125 30.2249L3.575 28.7624C4.0625 28.2749 4.55 28.2749 4.95625 28.2749H5.11875L14.3813 30.5499C14.7875 30.6312 15.1125 31.1187 14.95 31.5249C14.8687 31.9312 14.3813 32.2562 13.975 32.0937L4.95625 29.9812C4.875 29.9812 4.79375 29.9812 4.79375 29.9812L3.33125 31.4437L12.025 37.3749C12.4313 37.6187 12.5125 38.1062 12.2688 38.5124C12.025 38.6749 11.7812 38.8374 11.5375 38.8374Z" fill="white"/>
<path d="M20.7188 50.2937C20.6375 50.2937 20.5563 50.2937 20.475 50.2937C19.9875 50.2124 19.5813 49.9687 19.3375 49.5624L13 40.1374C12.7563 39.7312 12.8375 39.2437 13.2438 38.9999C13.65 38.7562 14.1375 38.8374 14.3813 39.2437L20.7188 48.5874L22.1 47.2062L19.3375 37.5374C19.175 37.1312 19.5 36.6437 19.9063 36.5624C20.3125 36.4812 20.8 36.7249 20.8813 37.1312L23.6438 46.7999C23.8063 47.2874 23.6438 47.9374 23.1563 48.4249L21.6938 49.8874C21.5313 50.1312 21.125 50.2937 20.7188 50.2937Z" fill="white"/>
<path d="M14.7063 40.2186C14.4625 40.2186 14.1375 40.2186 13.8938 40.1373C13.4875 40.0561 13.1625 39.6498 13.2438 39.2436C13.325 38.8373 13.7313 38.5123 14.1375 38.5936C15.8438 38.8373 18.6875 37.6998 19.5 36.8873L46.5563 12.1873C49.2375 9.5873 51.35 4.14355 49.725 2.4373C49.3188 2.03105 48.6688 1.7873 47.775 1.86855C45.3375 1.86855 41.7625 3.5748 39.8125 5.52481L14.7875 32.0123C13.975 32.8248 12.7563 35.5061 13.0813 37.2936C13.1625 37.6998 12.8375 38.1873 12.4313 38.1873C12.025 38.2686 11.5375 37.9436 11.5375 37.5373C11.1313 35.1811 12.5938 32.0123 13.7313 30.8748L38.7563 4.30606C41.0313 1.9498 45.0125 0.162305 47.8563 0.0810547H47.9375C49.2375 0.0810547 50.2938 0.406055 51.025 1.1373C53.625 3.81855 50.9438 10.1561 47.8563 13.1623L20.7188 37.9436C19.7438 38.9998 16.9813 40.2186 14.7063 40.2186Z" fill="white"/>
<path d="M46.1501 8.9375C45.7439 8.9375 45.3376 8.6125 45.3376 8.20625C45.2564 7.475 44.6876 6.9875 43.8751 6.90625H43.7126C43.2251 6.90625 42.9001 6.58125 42.9001 6.09375C42.9001 5.60625 43.2251 5.28125 43.7126 5.28125H43.9564C45.6626 5.3625 46.8814 6.5 46.9626 8.04375C46.9626 8.53125 46.6376 8.9375 46.1501 8.9375Z" fill="white"/>
<path d="M11.1312 42.4937C10.5625 42.4937 9.99375 42.2499 9.5875 41.8437C9.18125 41.4374 8.9375 40.9499 8.9375 40.3812C8.9375 39.8124 9.18125 39.2437 9.50625 38.8374L14.1375 34.2062C14.8687 33.4749 16.4125 33.4749 17.1438 34.2062C17.55 34.6124 17.7125 35.0999 17.7125 35.7499C17.7125 36.3999 17.4688 36.8874 17.1438 37.2937L12.5125 41.9249C12.2687 42.2499 11.7 42.4937 11.1312 42.4937ZM15.7625 35.2624C15.6 35.2624 15.5188 35.3437 15.4375 35.4249L10.8063 40.0562C10.725 40.1374 10.6438 40.2999 10.6438 40.3812C10.6438 40.5437 10.725 40.6249 10.8063 40.7062C11.05 40.9499 11.2938 40.9499 11.4563 40.7874L16.1687 36.0749C16.25 35.9937 16.3313 35.8312 16.3313 35.7499C16.3313 35.6687 16.25 35.5062 16.1687 35.4249C16.0062 35.2624 15.8437 35.2624 15.7625 35.2624Z" fill="white"/>
</g>
<defs>
<clipPath id="clip0_227_4354">
<rect width="52" height="52" fill="white"/>
</clipPath>
</defs>
</svg>
