<svg xmlns="http://www.w3.org/2000/svg" viewBox="0 0 100 100" preserveAspectRatio="xMidYMid" width="253" height="253" style="shape-rendering: auto; display: block; background: rgb(255, 255, 255);" xmlns:xlink="http://www.w3.org/1999/xlink"><g><g transform="rotate(0 50 50)">
  <rect fill="#f94735" height="14" width="1" ry="6.0200000000000005" rx="0.5" y="13" x="49.5">
    <animate repeatCount="indefinite" begin="-0.6357279084551812s" dur="0.6993006993006994s" keyTimes="0;1" values="1;0" attributeName="opacity"></animate>
  </rect>
</g><g transform="rotate(32.72727272727273 50 50)">
  <rect fill="#f94735" height="14" width="1" ry="6.0200000000000005" rx="0.5" y="13" x="49.5">
    <animate repeatCount="indefinite" begin="-0.5721551176096631s" dur="0.6993006993006994s" keyTimes="0;1" values="1;0" attributeName="opacity"></animate>
  </rect>
</g><g transform="rotate(65.45454545454545 50 50)">
  <rect fill="#f94735" height="14" width="1" ry="6.0200000000000005" rx="0.5" y="13" x="49.5">
    <animate repeatCount="indefinite" begin="-0.5085823267641449s" dur="0.6993006993006994s" keyTimes="0;1" values="1;0" attributeName="opacity"></animate>
  </rect>
</g><g transform="rotate(98.18181818181819 50 50)">
  <rect fill="#f94735" height="14" width="1" ry="6.0200000000000005" rx="0.5" y="13" x="49.5">
    <animate repeatCount="indefinite" begin="-0.44500953591862685s" dur="0.6993006993006994s" keyTimes="0;1" values="1;0" attributeName="opacity"></animate>
  </rect>
</g><g transform="rotate(130.9090909090909 50 50)">
  <rect fill="#f94735" height="14" width="1" ry="6.0200000000000005" rx="0.5" y="13" x="49.5">
    <animate repeatCount="indefinite" begin="-0.38143674507310876s" dur="0.6993006993006994s" keyTimes="0;1" values="1;0" attributeName="opacity"></animate>
  </rect>
</g><g transform="rotate(163.63636363636363 50 50)">
  <rect fill="#f94735" height="14" width="1" ry="6.0200000000000005" rx="0.5" y="13" x="49.5">
    <animate repeatCount="indefinite" begin="-0.3178639542275906s" dur="0.6993006993006994s" keyTimes="0;1" values="1;0" attributeName="opacity"></animate>
  </rect>
</g><g transform="rotate(196.36363636363637 50 50)">
  <rect fill="#f94735" height="14" width="1" ry="6.0200000000000005" rx="0.5" y="13" x="49.5">
    <animate repeatCount="indefinite" begin="-0.25429116338207247s" dur="0.6993006993006994s" keyTimes="0;1" values="1;0" attributeName="opacity"></animate>
  </rect>
</g><g transform="rotate(229.0909090909091 50 50)">
  <rect fill="#f94735" height="14" width="1" ry="6.0200000000000005" rx="0.5" y="13" x="49.5">
    <animate repeatCount="indefinite" begin="-0.19071837253655438s" dur="0.6993006993006994s" keyTimes="0;1" values="1;0" attributeName="opacity"></animate>
  </rect>
</g><g transform="rotate(261.8181818181818 50 50)">
  <rect fill="#f94735" height="14" width="1" ry="6.0200000000000005" rx="0.5" y="13" x="49.5">
    <animate repeatCount="indefinite" begin="-0.12714558169103624s" dur="0.6993006993006994s" keyTimes="0;1" values="1;0" attributeName="opacity"></animate>
  </rect>
</g><g transform="rotate(294.54545454545456 50 50)">
  <rect fill="#f94735" height="14" width="1" ry="6.0200000000000005" rx="0.5" y="13" x="49.5">
    <animate repeatCount="indefinite" begin="-0.06357279084551812s" dur="0.6993006993006994s" keyTimes="0;1" values="1;0" attributeName="opacity"></animate>
  </rect>
</g><g transform="rotate(327.27272727272725 50 50)">
  <rect fill="#f94735" height="14" width="1" ry="6.0200000000000005" rx="0.5" y="13" x="49.5">
    <animate repeatCount="indefinite" begin="0s" dur="0.6993006993006994s" keyTimes="0;1" values="1;0" attributeName="opacity"></animate>
  </rect>
</g><g></g></g><!-- [ldio] generated by https://loading.io --></svg>