<svg width="163" height="44" viewBox="0 0 163 44" fill="none" xmlns="http://www.w3.org/2000/svg">
<path d="M153.635 29.4996V14.9503H157.273V16.5929H157.801C158.016 16.0063 158.368 15.576 158.857 15.3023C159.365 15.0285 159.952 14.8916 160.617 14.8916H162.377V18.1769H160.558C159.619 18.1769 158.847 18.4312 158.241 18.9396C157.635 19.4285 157.332 20.1912 157.332 21.2276V29.4996H153.635Z" fill="white"/>
<path d="M143.922 29.9102C142.475 29.9102 141.194 29.6071 140.079 29.0009C138.984 28.3751 138.124 27.5049 137.498 26.3902C136.892 25.256 136.588 23.9262 136.588 22.4009V22.0489C136.588 20.5236 136.892 19.2036 137.498 18.0889C138.104 16.9547 138.955 16.0844 140.05 15.4782C141.145 14.8524 142.416 14.5396 143.863 14.5396C145.291 14.5396 146.532 14.8622 147.588 15.5076C148.644 16.1333 149.466 17.0133 150.052 18.1476C150.639 19.2622 150.932 20.5627 150.932 22.0489V23.3102H140.343C140.382 24.3076 140.754 25.1191 141.458 25.7449C142.162 26.3707 143.022 26.6836 144.039 26.6836C145.076 26.6836 145.838 26.4587 146.327 26.0089C146.816 25.5591 147.188 25.0604 147.442 24.5129L150.463 26.0969C150.189 26.6053 149.788 27.1627 149.26 27.7689C148.752 28.3556 148.068 28.864 147.207 29.2942C146.347 29.7049 145.252 29.9102 143.922 29.9102ZM140.372 20.5529H147.178C147.1 19.712 146.757 19.0373 146.151 18.5289C145.564 18.0204 144.792 17.7662 143.834 17.7662C142.836 17.7662 142.044 18.0204 141.458 18.5289C140.871 19.0373 140.509 19.712 140.372 20.5529Z" fill="white"/>
<path d="M125.289 29.4995L120.655 14.9502H124.585L127.959 26.8008H128.487L131.86 14.9502H135.791L131.156 29.4995H125.289Z" fill="white"/>
<path d="M115.034 29.4996V14.9502H118.73V29.4996H115.034ZM116.882 13.2489C116.217 13.2489 115.65 13.0338 115.18 12.6036C114.73 12.1733 114.506 11.6062 114.506 10.9022C114.506 10.1982 114.73 9.63112 115.18 9.2009C115.65 8.77068 116.217 8.55557 116.882 8.55557C117.566 8.55557 118.133 8.77068 118.583 9.2009C119.033 9.63112 119.258 10.1982 119.258 10.9022C119.258 11.6062 119.033 12.1733 118.583 12.6036C118.133 13.0338 117.566 13.2489 116.882 13.2489Z" fill="white"/>
<path d="M96.2105 22.2836V21.8142C96.2105 20.2889 96.5136 18.9884 97.1198 17.9129C97.726 16.8178 98.5278 15.9867 99.5251 15.4196C100.542 14.8329 101.647 14.5396 102.84 14.5396C104.17 14.5396 105.177 14.7742 105.861 15.2436C106.546 15.7129 107.044 16.2018 107.357 16.7102H107.885V14.9502H111.522V32.0809C111.522 33.0782 111.229 33.8702 110.642 34.4569C110.056 35.0631 109.274 35.3662 108.296 35.3662H98.5571V32.1396H107.005C107.553 32.1396 107.826 31.8462 107.826 31.2596V27.4756H107.298C107.103 27.7884 106.829 28.1111 106.477 28.4436C106.125 28.7564 105.656 29.0204 105.069 29.2356C104.482 29.4507 103.739 29.5582 102.84 29.5582C101.647 29.5582 100.542 29.2747 99.5251 28.7076C98.5278 28.1209 97.726 27.2898 97.1198 26.2142C96.5136 25.1191 96.2105 23.8089 96.2105 22.2836ZM103.896 26.3316C105.03 26.3316 105.978 25.9698 106.741 25.2462C107.504 24.5227 107.885 23.5058 107.885 22.1956V21.9022C107.885 20.5724 107.504 19.5556 106.741 18.8516C105.998 18.128 105.05 17.7662 103.896 17.7662C102.762 17.7662 101.813 18.128 101.05 18.8516C100.288 19.5556 99.9065 20.5724 99.9065 21.9022V22.1956C99.9065 23.5058 100.288 24.5227 101.05 25.2462C101.813 25.9698 102.762 26.3316 103.896 26.3316Z" fill="white"/>
<path d="M86.4629 29.9102C85.0158 29.9102 83.7154 29.6169 82.5616 29.0302C81.4078 28.4436 80.4985 27.5929 79.8336 26.4782C79.1687 25.3636 78.8363 24.024 78.8363 22.4596V21.9902C78.8363 20.4258 79.1687 19.0862 79.8336 17.9716C80.4985 16.8569 81.4078 16.0062 82.5616 15.4196C83.7154 14.8329 85.0158 14.5396 86.4629 14.5396C87.91 14.5396 89.2105 14.8329 90.3643 15.4196C91.518 16.0062 92.4274 16.8569 93.0923 17.9716C93.7571 19.0862 94.0896 20.4258 94.0896 21.9902V22.4596C94.0896 24.024 93.7571 25.3636 93.0923 26.4782C92.4274 27.5929 91.518 28.4436 90.3643 29.0302C89.2105 29.6169 87.91 29.9102 86.4629 29.9102ZM86.4629 26.6249C87.5971 26.6249 88.5358 26.2631 89.2789 25.5396C90.022 24.7964 90.3936 23.7404 90.3936 22.3716V22.0782C90.3936 20.7093 90.022 19.6631 89.2789 18.9396C88.5554 18.1964 87.6167 17.8249 86.4629 17.8249C85.3287 17.8249 84.39 18.1964 83.6469 18.9396C82.9038 19.6631 82.5323 20.7093 82.5323 22.0782V22.3716C82.5323 23.7404 82.9038 24.7964 83.6469 25.5396C84.39 26.2631 85.3287 26.6249 86.4629 26.6249Z" fill="white"/>
<path d="M64.1111 29.4995V8.96619H67.9831V25.9795H77.3698V29.4995H64.1111Z" fill="white"/>
<mask id="mask0_227_639" style="mask-type:luminance" maskUnits="userSpaceOnUse" x="5" y="0" width="52" height="44">
<path d="M56.1785 0H5.23716V44H56.1785V0Z" fill="white"/>
</mask>
<g mask="url(#mask0_227_639)">
<path d="M7.80773 20.2235C6.97803 19.4054 6.3189 18.6104 5.81877 17.8371C6.43165 14.6223 7.73835 11.6562 9.57988 9.10066C10.0352 9.69185 10.5903 10.2932 11.2725 10.9176C11.4084 11.0419 11.5558 11.1677 11.7033 11.292C9.93258 14.1338 8.83113 17.4396 8.60274 20.9838C8.31943 20.7338 8.04624 20.4837 7.79617 20.2336L7.80773 20.2235ZM8.5695 22.2905C8.5695 22.1764 8.5695 22.0636 8.5695 21.9494C8.28619 21.7673 7.98986 21.575 7.71667 21.3929C6.92166 20.8364 6.19459 20.2915 5.53545 19.7451C5.46752 20.4606 5.42126 21.1877 5.42126 21.9263C5.42126 25.0499 6.0804 28.0276 7.26135 30.7191C7.28447 30.7306 7.30616 30.7523 7.32928 30.7653L7.35241 30.5601L11.5226 32.9798C9.64927 29.8561 8.5695 26.1976 8.5695 22.2905ZM12.4997 10.111C16.284 4.86255 22.4417 1.45414 29.4045 1.45414C36.3688 1.45414 38.9938 3.21472 42.5829 6.14612C38.6411 2.34021 33.2798 0 27.3606 0C21.4414 0 15.4774 2.6134 11.4894 6.80526C11.3535 7.65664 11.6035 8.61065 12.1947 9.62247C12.2858 9.78147 12.3884 9.94048 12.5012 10.0995V10.111H12.4997ZM12.3407 34.2417C11.91 34.0378 11.4778 33.8442 11.0572 33.6389C9.92102 33.094 8.86438 32.5259 7.86411 31.9578C13.2152 42.3536 25.7012 46.6698 36.2561 41.9778C32.7349 43.205 20.3284 45.6363 12.3292 34.2402H12.3407V34.2417ZM56.1718 27.1979C56.1718 27.1979 56.1487 29.6523 56.1487 29.7318C56.1487 30.5167 55.6601 30.4372 55.6601 30.4372L55.5589 37.4925C55.4563 38.2543 54.2175 38.3555 54.2175 38.3555L51.8889 38.5029C51.1965 39.6853 50.3436 39.7417 50.3436 39.7417H48.3662C47.3096 39.7417 46.5146 38.4697 46.5146 38.4697L36.5625 38.5029C36.1318 40.275 34.7904 40.2866 34.7904 40.2866H34.7571L32.8375 40.2982L17.9203 35.2087L31.0639 37.6746C30.9281 37.2757 30.837 36.8898 30.8023 36.618C30.7011 35.4934 30.6433 33.4944 31.5178 32.2108C31.7563 31.8581 32.5065 31.2452 33.29 31.2004C33.29 31.2004 31.9833 30.7234 31.1434 31.9723C31.1434 31.9723 30.5869 32.5288 30.4164 34.8806C30.4164 34.8806 30.4048 35.9025 30.4511 36.6195C30.1446 36.5746 29.4392 36.4041 29.4392 36.4041C29.1559 31.5314 30.9396 30.7118 30.9396 30.7118V29.2461C30.7806 29.2013 30.8037 29.0539 30.8037 29.0539V28.0767C30.7141 28.0767 30.6332 28.0536 30.5537 28.0204C30.5204 28.9397 30.5089 29.713 30.5089 30.258C28.7035 31.2582 28.8957 35.7681 28.8957 35.7681L13.1025 31.436L27.258 31.9925L27.2349 29.6306L12.9999 27.3685L27.2016 25.949L27.1785 23.7909L12.6255 23.5293L27.1453 20.5068L27.1221 18.4051L13.1488 19.8824L27.1005 15.6674L27.0773 13.1798L12.546 16.1213L28.53 9.43022C29.0302 9.30591 29.5404 9.23653 30.0521 9.2481L43.3909 9.4071C44.2423 9.43023 44.8667 9.71354 44.9694 10.5548L32.0974 10.7138C31.8243 10.7138 31.5973 10.8728 31.4947 11.1113C31.7448 10.987 31.9717 11.0202 31.9717 11.0202L48.7507 11.1908C53.4211 12.1679 53.9544 15.1095 53.9544 15.1095C54.8738 18.3589 55.4201 22.675 55.4201 22.675C55.7035 22.8687 55.8176 23.2995 55.8176 23.2995L55.783 26.5605C56.0215 26.8669 56.1703 27.1733 56.1703 27.1733V27.1979H56.1718ZM39.4029 15.5301C39.6182 17.6882 39.8452 22.6982 39.8452 22.6982C43.5384 22.9714 54.3201 22.6982 54.3201 22.6982C53.9226 18.2562 53.2751 15.5865 53.2751 15.5865L39.4144 15.5402L39.4029 15.5301ZM54.2175 25.949L53.7405 26.1875L43.9474 26.2323L42.4022 25.8348L43.8217 26.8351L53.7058 26.7325L54.2175 25.9606V25.949ZM53.4673 28.1302L44.4924 28.2892L43.0614 27.8802L44.3001 28.8342L53.4225 28.6636L53.9342 27.8917L53.4572 28.1302H53.4673ZM41.1186 27.925L40.8006 27.698C40.698 27.6301 40.5737 27.7559 40.5853 27.8802L40.6315 29.7535C40.6315 29.8908 40.6995 30.0036 40.8136 30.0715L41.1779 30.2984C41.1779 30.2984 41.1215 27.9799 41.1215 27.9351V27.925H41.1186ZM33.0066 13.1899L37.3922 13.3388L37.3691 14.1005L34.0517 14.3838L37.0395 14.5428C37.5512 14.6223 37.7666 14.2248 37.7666 14.2248L37.7897 13.2029C37.7218 12.8965 37.3691 12.9297 37.3691 12.9297L33.0066 13.1798V13.1899ZM33.4273 33.889C33.4851 33.889 33.5299 33.889 33.5747 33.9121C33.3478 33.5131 33.063 33.2761 32.7465 33.2877C32.0989 33.3108 31.6103 34.4238 31.6667 35.7753C31.713 37.1167 32.2796 38.195 32.9387 38.1733C33.1657 38.1733 33.3593 38.0375 33.5299 37.799C33.0298 37.7643 32.599 36.936 32.5643 35.8779C32.5181 34.7982 32.9156 33.9121 33.4273 33.889ZM31.7346 29.1059V29.8908C31.7346 29.8908 34.6877 29.3791 35.7227 31.9463C35.7675 32.0605 35.6533 28.8226 31.7346 29.1059ZM37.6307 25.0051L30.7228 23.8011L36.5958 25.3347L36.5726 27.0057L31.2894 27.3005L37.5946 27.6865L37.6177 24.982L37.6307 25.0051ZM38.1641 22.4611L38.0962 15.5995L32.0743 15.6558L32.0411 19.508C32.0411 19.508 31.9847 20.7583 32.9156 20.9058L38.1641 22.4611ZM41.9368 32.6516L38.7336 32.617C38.5963 32.617 38.4835 32.7311 38.4835 32.867V34.2417C38.472 34.3891 38.5847 34.5033 38.7336 34.5033L43.5282 34.5495C43.5282 34.5495 43.6077 32.7311 41.9368 32.6415V32.6516ZM53.8084 29.7434L53.3314 29.9819L44.913 30.164L43.4805 29.7549L44.7988 30.6757L53.2736 30.4141L53.8084 29.7318V29.7434ZM55.3204 32.3553L54.9345 32.4348C54.9345 32.4348 53.8663 32.549 53.8547 34.2518H55.0487C55.173 34.2518 55.264 34.1506 55.2756 34.0248L55.3204 32.3553ZM55.5922 27.698C55.5922 27.5838 55.478 27.5159 55.3768 27.5737L55.0819 27.7443C54.9908 27.8021 54.9345 27.8932 54.9345 27.9944L54.9113 30.1192C55.5242 30.0961 55.5589 29.7795 55.5589 29.7795L55.582 27.6894L55.5922 27.698Z" fill="white"/>
</g>
<path d="M10.9542 32.6169C12.0224 33.276 13.1918 33.9236 14.4306 34.548C13.3392 34.0826 12.2841 33.6041 11.2722 33.1156C9.65908 32.3321 8.15868 31.514 6.84041 30.6959C2.08047 27.7413 -0.600884 24.6856 0.114624 22.4365C0.556939 21.0387 2.27271 20.1526 4.863 19.7667C4.80518 20.3116 4.79506 20.858 4.79506 21.4246V21.5273C4.12436 21.9927 3.67049 22.5723 3.44355 23.2315C2.91017 24.8894 3.94368 26.9347 6.13646 29.0148C7.38679 30.2073 9.01151 31.4345 10.9412 32.6039L10.9542 32.6169ZM5.13764 18.5641C5.97746 19.3359 6.97773 20.0977 8.09074 20.8826C8.40874 21.098 8.76144 21.3249 9.10112 21.5417C9.73713 21.9277 10.9412 22.5983 12.4185 23.1332C12.4185 23.1332 12.4185 23.1332 12.43 23.1332C10.7475 21.997 9.30638 20.8378 8.17024 19.7132C6.91991 18.4874 6.03383 17.2935 5.56839 16.1805C5.13764 15.1585 5.03501 14.2045 5.34145 13.3633C5.65946 12.4888 6.38653 11.7834 7.4316 11.2731L8.34081 9.70623C4.86445 9.85367 2.51266 10.7397 1.91135 12.4093C1.30858 14.0802 2.55892 16.2614 5.12608 18.5669H5.13764V18.5641ZM12.5674 9.11215C11.862 7.90807 11.6365 6.7835 11.9762 5.81793C12.0441 5.61267 12.1583 5.40886 12.2942 5.22673C12.6237 4.71504 13.147 4.29585 13.8278 3.96629C14.5318 3.43291 15.2704 2.93278 16.0437 2.50058C12.1814 2.44421 9.51164 3.25078 8.89731 4.96655C8.56775 5.87575 8.85106 6.94395 9.62439 8.11333C10.113 8.8404 10.7938 9.60216 11.6466 10.3972C11.8287 10.5677 12.0325 10.7267 12.2262 10.8973C12.8059 11.3526 14.8396 12.8863 16.9977 13.6697C16.9977 13.6697 17.0093 13.6697 17.0209 13.6697C14.9538 12.1129 13.3971 10.5562 12.5558 9.11359H12.5674V9.11215Z" fill="#F94735"/>
</svg>
