<svg width="296" height="80" viewBox="0 0 296 80" fill="none" xmlns="http://www.w3.org/2000/svg">
<path d="M279.337 53.6352V27.1819H285.951V30.1685H286.911C287.302 29.1019 287.942 28.3196 288.831 27.8219C289.755 27.3241 290.822 27.0752 292.031 27.0752H295.231V33.0485H291.924C290.217 33.0485 288.813 33.5107 287.711 34.4352C286.608 35.3241 286.057 36.7107 286.057 38.5952V53.6352H279.337Z" fill="white"/>
<path d="M261.676 54.3832C259.045 54.3832 256.716 53.8321 254.689 52.7299C252.698 51.5921 251.134 50.0099 249.996 47.9832C248.894 45.921 248.343 43.5032 248.343 40.7299V40.0899C248.343 37.3165 248.894 34.9165 249.996 32.8899C251.098 30.8276 252.645 29.2454 254.636 28.1432C256.627 27.0054 258.938 26.4365 261.569 26.4365C264.165 26.4365 266.423 27.0232 268.343 28.1965C270.263 29.3343 271.756 30.9343 272.823 32.9965C273.889 35.0232 274.423 37.3876 274.423 40.0899V42.3832H255.169C255.24 44.1965 255.916 45.6721 257.196 46.8099C258.476 47.9476 260.04 48.5165 261.889 48.5165C263.774 48.5165 265.16 48.1076 266.049 47.2899C266.938 46.4721 267.614 45.5654 268.076 44.5699L273.569 47.4499C273.072 48.3743 272.343 49.3876 271.383 50.4899C270.458 51.5565 269.214 52.481 267.649 53.2632C266.085 54.0099 264.094 54.3832 261.676 54.3832ZM255.223 37.3699H267.596C267.454 35.841 266.832 34.6143 265.729 33.6899C264.663 32.7654 263.258 32.3032 261.516 32.3032C259.703 32.3032 258.263 32.7654 257.196 33.6899C256.129 34.6143 255.472 35.841 255.223 37.3699Z" fill="white"/>
<path d="M227.799 53.6359L219.372 27.1826H226.519L232.652 48.7293H233.612L239.745 27.1826H246.892L238.465 53.6359H227.799Z" fill="white"/>
<path d="M209.152 53.6357V27.1823H215.872V53.6357H209.152ZM212.512 24.089C211.303 24.089 210.272 23.6979 209.419 22.9157C208.601 22.1334 208.192 21.1023 208.192 19.8223C208.192 18.5423 208.601 17.5112 209.419 16.729C210.272 15.9468 211.303 15.5557 212.512 15.5557C213.756 15.5557 214.787 15.9468 215.605 16.729C216.423 17.5112 216.832 18.5423 216.832 19.8223C216.832 21.1023 216.423 22.1334 215.605 22.9157C214.787 23.6979 213.756 24.089 212.512 24.089Z" fill="white"/>
<path d="M174.928 40.5165V39.6632C174.928 36.8899 175.479 34.5254 176.581 32.5699C177.684 30.5787 179.141 29.0676 180.955 28.0365C182.804 26.9699 184.813 26.4365 186.981 26.4365C189.399 26.4365 191.23 26.8632 192.475 27.7165C193.719 28.5699 194.626 29.4587 195.195 30.3832H196.155V27.1832H202.768V58.3299C202.768 60.1432 202.235 61.5832 201.168 62.6499C200.102 63.7521 198.679 64.3032 196.901 64.3032H179.195V58.4365H194.555C195.55 58.4365 196.048 57.9032 196.048 56.8365V49.9565H195.088C194.733 50.5254 194.235 51.1121 193.595 51.7165C192.955 52.2854 192.101 52.7654 191.035 53.1565C189.968 53.5476 188.617 53.7432 186.981 53.7432C184.813 53.7432 182.804 53.2276 180.955 52.1965C179.141 51.1299 177.684 49.6188 176.581 47.6632C175.479 45.6721 174.928 43.2899 174.928 40.5165ZM188.901 47.8765C190.964 47.8765 192.688 47.2188 194.075 45.9032C195.461 44.5876 196.155 42.7388 196.155 40.3565V39.8232C196.155 37.4054 195.461 35.5565 194.075 34.2765C192.724 32.961 190.999 32.3032 188.901 32.3032C186.839 32.3032 185.115 32.961 183.728 34.2765C182.341 35.5565 181.648 37.4054 181.648 39.8232V40.3565C181.648 42.7388 182.341 44.5876 183.728 45.9032C185.115 47.2188 186.839 47.8765 188.901 47.8765Z" fill="white"/>
<path d="M157.205 54.3832C154.574 54.3832 152.21 53.8499 150.112 52.7832C148.014 51.7165 146.361 50.1699 145.152 48.1432C143.943 46.1165 143.339 43.681 143.339 40.8365V39.9832C143.339 37.1388 143.943 34.7032 145.152 32.6765C146.361 30.6499 148.014 29.1032 150.112 28.0365C152.21 26.9699 154.574 26.4365 157.205 26.4365C159.836 26.4365 162.201 26.9699 164.299 28.0365C166.396 29.1032 168.05 30.6499 169.259 32.6765C170.468 34.7032 171.072 37.1388 171.072 39.9832V40.8365C171.072 43.681 170.468 46.1165 169.259 48.1432C168.05 50.1699 166.396 51.7165 164.299 52.7832C162.201 53.8499 159.836 54.3832 157.205 54.3832ZM157.205 48.4099C159.268 48.4099 160.974 47.7521 162.325 46.4365C163.676 45.0854 164.352 43.1654 164.352 40.6765V40.1432C164.352 37.6543 163.676 35.7521 162.325 34.4365C161.01 33.0854 159.303 32.4099 157.205 32.4099C155.143 32.4099 153.436 33.0854 152.085 34.4365C150.734 35.7521 150.059 37.6543 150.059 40.1432V40.6765C150.059 43.1654 150.734 45.0854 152.085 46.4365C153.436 47.7521 155.143 48.4099 157.205 48.4099Z" fill="white"/>
<path d="M116.566 53.6351V16.3018H123.606V47.2351H140.672V53.6351H116.566Z" fill="white"/>
<mask id="mask0_227_5196" style="mask-type:luminance" maskUnits="userSpaceOnUse" x="9" y="0" width="94" height="80">
<path d="M102.143 0H9.52209V80H102.143V0Z" fill="white"/>
</mask>
<g mask="url(#mask0_227_5196)">
<path d="M14.1959 36.77C12.6873 35.2825 11.4889 33.8371 10.5796 32.431C11.6939 26.5861 14.0697 21.1932 17.418 16.5467C18.2458 17.6216 19.255 18.7149 20.4955 19.8502C20.7426 20.0762 21.0106 20.3049 21.2787 20.5309C18.0592 25.6978 16.0566 31.7083 15.6414 38.1524C15.1262 37.6978 14.6295 37.2431 14.1749 36.7884L14.1959 36.77ZM15.5809 40.5283C15.5809 40.3206 15.5809 40.1156 15.5809 39.908C15.0658 39.5769 14.527 39.2273 14.0303 38.8962C12.5848 37.8844 11.2629 36.8936 10.0645 35.9001C9.94094 37.2011 9.85684 38.523 9.85684 39.866C9.85684 45.5453 11.0553 50.9593 13.2025 55.8528C13.2445 55.8739 13.2839 55.9133 13.326 55.9369L13.368 55.5637L20.9502 59.9632C17.5441 54.2838 15.5809 47.6321 15.5809 40.5283ZM22.7268 18.3837C29.6072 8.841 40.8031 2.64389 53.4628 2.64389C66.1251 2.64389 70.8978 5.84494 77.4235 11.1748C70.2565 4.25493 60.5088 0 49.7466 0C38.9844 0 28.1407 4.75164 20.8897 12.3732C20.6427 13.9212 21.0974 15.6557 22.1723 17.4954C22.3378 17.7845 22.5244 18.0736 22.7294 18.3627V18.3837H22.7268ZM22.4377 62.2576C21.6545 61.887 20.8687 61.5348 20.1039 61.1616C18.0382 60.1708 16.117 59.138 14.2984 58.1051C24.0277 77.0066 46.7295 84.8542 65.9201 76.3233C59.518 78.5546 36.9608 82.9751 22.4167 62.2549H22.4377V62.2576ZM102.131 49.4507C102.131 49.4507 102.088 53.9133 102.088 54.0578C102.088 55.4849 101.2 55.3404 101.2 55.3404L101.016 68.1682C100.83 69.5532 98.5773 69.7372 98.5773 69.7372L94.3434 70.0053C93.0845 72.1551 91.5339 72.2576 91.5339 72.2576H87.9386C86.0174 72.2576 84.572 69.9448 84.572 69.9448L66.4773 70.0053C65.6941 73.2273 63.2552 73.2484 63.2552 73.2484H63.1948L59.7046 73.2694L32.5823 64.0158L56.4799 68.4994C56.2328 67.774 56.0673 67.0723 56.0042 66.5782C55.8202 64.5335 55.7151 60.8988 57.3051 58.5651C57.7388 57.9238 59.1028 56.8095 60.5272 56.728C60.5272 56.728 58.1514 55.8607 56.6244 58.1314C56.6244 58.1314 55.6126 59.1432 55.3025 63.4192C55.3025 63.4192 55.2815 65.2773 55.3656 66.5808C54.8084 66.4994 53.5259 66.1892 53.5259 66.1892C53.0107 57.3298 56.2539 55.8397 56.2539 55.8397V53.1748C55.9648 53.0933 56.0068 52.8252 56.0068 52.8252V51.0486C55.8439 51.0486 55.6967 51.0066 55.5522 50.9461C55.4917 52.6176 55.4707 54.0237 55.4707 55.0145C52.1881 56.8331 52.5377 65.0329 52.5377 65.0329L23.8227 57.1564L49.56 58.1682L49.518 53.8739L23.6361 49.7608L49.4575 47.18L49.4155 43.2562L22.9554 42.7806L49.355 37.2852L49.313 33.4639L23.9068 36.1498L49.2735 28.4862L49.2315 23.9632L22.8109 29.3114L51.8728 17.1459C52.7821 16.9198 53.7098 16.7937 54.6402 16.8147L78.8926 17.1038C80.4406 17.1459 81.5759 17.661 81.7625 19.1905L58.359 19.4796C57.8623 19.4796 57.4497 19.7687 57.2631 20.2024C57.7177 19.9764 58.1303 20.0368 58.1303 20.0368L88.6377 20.3469C97.1292 22.1235 98.099 27.4718 98.099 27.4718C99.7705 33.3798 100.764 41.2273 100.764 41.2273C101.279 41.5795 101.487 42.3627 101.487 42.3627L101.424 48.2917C101.857 48.8489 102.128 49.4061 102.128 49.4061V49.4507H102.131ZM71.6416 28.2365C72.0332 32.1603 72.4458 41.2694 72.4458 41.2694C79.1607 41.7661 98.7639 41.2694 98.7639 41.2694C98.0411 33.1932 96.8637 28.339 96.8637 28.339L71.6626 28.2549L71.6416 28.2365ZM98.5773 47.18L97.71 47.6137L79.9044 47.6951L77.0949 46.9724L79.6758 48.7911L97.6469 48.6045L98.5773 47.2011V47.18ZM97.2133 51.1459L80.8952 51.435L78.2934 50.6912L80.5457 52.4258L97.1318 52.1156L98.0622 50.7122L97.1949 51.1459H97.2133ZM74.7612 50.7727L74.183 50.3601C73.9964 50.2365 73.7704 50.4652 73.7914 50.6912L73.8755 54.0972C73.8755 54.3469 73.999 54.5519 74.2066 54.6754L74.8689 55.0881C74.8689 55.0881 74.7664 50.8725 74.7664 50.7911V50.7727H74.7612ZM60.0121 23.9816L67.9858 24.2523L67.9438 25.6373L61.9122 26.1524L67.3446 26.4415C68.2749 26.5861 68.6665 25.8633 68.6665 25.8633L68.7086 24.0053C68.5851 23.4481 67.9438 23.5085 67.9438 23.5085L60.0121 23.9632V23.9816ZM60.7769 61.6163C60.882 61.6163 60.9635 61.6163 61.0449 61.6584C60.6323 60.933 60.1146 60.502 59.539 60.523C58.3616 60.5651 57.4733 62.5887 57.5758 65.046C57.6599 67.4849 58.6901 69.4455 59.8886 69.4061C60.3012 69.4061 60.6534 69.159 60.9635 68.7254C60.0541 68.6623 59.271 67.1564 59.2079 65.2326C59.1238 63.2694 59.8465 61.6584 60.7769 61.6163ZM57.6993 52.9199V54.3469C57.6993 54.3469 63.0686 53.4166 64.9503 58.0841C65.0318 58.2917 64.8242 52.4047 57.6993 52.9199ZM68.4195 45.4639L55.8596 43.2746L66.5377 46.0631L66.4957 49.1012L56.8899 49.6373L68.3538 50.339L68.3958 45.4218L68.4195 45.4639ZM69.3893 40.8384L69.2657 28.3627L58.3169 28.4652L58.2565 35.4691C58.2565 35.4691 58.154 37.7425 59.8465 38.0105L69.3893 40.8384ZM76.2487 59.3666L70.4247 59.3036C70.1751 59.3036 69.9701 59.5112 69.9701 59.7582V62.2576C69.9491 62.5256 70.1541 62.7333 70.4247 62.7333L79.1423 62.8174C79.1423 62.8174 79.2868 59.5112 76.2487 59.3482V59.3666ZM97.8335 54.0789L96.9662 54.5125L81.66 54.8436L79.0555 54.0999L81.4524 55.774L96.8611 55.2983L97.8335 54.0578V54.0789ZM100.583 58.8279L99.8808 58.9724C99.8808 58.9724 97.9387 59.18 97.9176 62.276H100.088C100.314 62.276 100.48 62.092 100.501 61.8633L100.583 58.8279ZM101.077 50.3601C101.077 50.1524 100.869 50.0289 100.685 50.134L100.149 50.4442C99.9833 50.5493 99.8808 50.7149 99.8808 50.8988L99.8388 54.7622C100.953 54.7201 101.016 54.1446 101.016 54.1446L101.058 50.3443L101.077 50.3601Z" fill="white"/>
</g>
<path d="M19.9168 59.3039C21.8589 60.5023 23.9851 61.6797 26.2374 62.8151C24.2532 61.9688 22.3346 61.0989 20.495 60.2106C17.562 58.7862 14.834 57.2987 12.4371 55.8111C3.78267 50.4393 -1.09252 44.8834 0.208408 40.7941C1.01262 38.2527 4.13221 36.6416 8.84182 35.9399C8.73669 36.9307 8.7183 37.9241 8.7183 38.9544V39.141C7.49884 39.9872 6.67361 41.0411 6.26099 42.2395C5.29121 45.254 7.17033 48.9728 11.1572 52.7546C13.4305 54.9228 16.3846 57.1541 19.8931 59.2803L19.9168 59.3039ZM9.34116 33.7533C10.8681 35.1567 12.6868 36.5418 14.7104 37.9688C15.2886 38.3604 15.9299 38.773 16.5475 39.1672C17.7039 39.869 19.8931 41.0884 22.5791 42.0608C22.5791 42.0608 22.5791 42.0608 22.6001 42.0608C19.5409 39.9951 16.9207 37.8874 14.855 35.8427C12.5816 33.614 10.9706 31.4432 10.1243 29.4195C9.34116 27.5615 9.15456 25.8269 9.71173 24.2973C10.2899 22.7073 11.6119 21.4248 13.512 20.4971L15.1651 17.6482C8.84445 17.9163 4.56848 19.5273 3.47517 22.5628C2.37924 25.6009 4.65258 29.5667 9.32014 33.7586H9.34116V33.7533ZM22.8498 16.568C21.5672 14.3788 21.1572 12.3341 21.7749 10.5785C21.8984 10.2054 22.106 9.83479 22.353 9.50365C22.9523 8.57329 23.9036 7.81114 25.1415 7.21193C26.4214 6.24215 27.7644 5.33282 29.1704 4.54701C22.148 4.44451 17.2939 5.91101 16.1769 9.03059C15.5777 10.6837 16.0928 12.6259 17.4989 14.752C18.3872 16.0739 19.625 17.459 21.1756 18.9044C21.5068 19.2146 21.8773 19.5036 22.2295 19.8138C23.2834 20.6416 26.9812 23.4301 30.905 24.8545C30.905 24.8545 30.926 24.8545 30.947 24.8545C27.1888 22.024 24.3583 19.1935 22.8287 16.5707H22.8498V16.568Z" fill="#F94735"/>
</svg>
